<?xml version="1.0" encoding="UTF-8" standalone="no"?>
<svg
   xmlns:dc="http://purl.org/dc/elements/1.1/"
   xmlns:cc="http://creativecommons.org/ns#"
   xmlns:rdf="http://www.w3.org/1999/02/22-rdf-syntax-ns#"
   xmlns:svg="http://www.w3.org/2000/svg"
   xmlns="http://www.w3.org/2000/svg"
   xmlns:sodipodi="http://sodipodi.sourceforge.net/DTD/sodipodi-0.dtd"
   xmlns:inkscape="http://www.inkscape.org/namespaces/inkscape"
   viewBox="0 0 171.1212 173.47106"
   height="173.47107"
   width="171.1212"
   xml:space="preserve"
   id="svg2"
   version="1.1"
   sodipodi:docname="Catalyst-Logo_group.svg"
   inkscape:version="0.92.4 (5da689c313, 2019-01-14)"><sodipodi:namedview
     pagecolor="#ffffff"
     bordercolor="#666666"
     borderopacity="1"
     objecttolerance="10"
     gridtolerance="10"
     guidetolerance="10"
     inkscape:pageopacity="0"
     inkscape:pageshadow="2"
     inkscape:window-width="958"
     inkscape:window-height="1008"
     id="namedview3974"
     showgrid="false"
     inkscape:zoom="1.4278532"
     inkscape:cx="183.24964"
     inkscape:cy="14.899896"
     inkscape:window-x="953"
     inkscape:window-y="0"
     inkscape:window-maximized="0"
     inkscape:current-layer="g12" /><metadata
     id="metadata8"><rdf:RDF><cc:Work
         rdf:about=""><dc:format>image/svg+xml</dc:format><dc:type
           rdf:resource="http://purl.org/dc/dcmitype/StillImage" /><dc:title></dc:title></cc:Work></rdf:RDF></metadata><defs
     id="defs6" /><g
     transform="matrix(1.3333333,0,0,-1.3333333,2.036378e-4,173.47087)"
     id="g10"><g
       transform="scale(0.1)"
       id="g12"><path
         id="path14"
         style="fill:#d7058d;fill-opacity:1;fill-rule:nonzero;stroke:none"
         d="m 376.703,938.746 c -0.117,0.137 -0.215,0.203 -0.351,0.352 -9.403,10.41 -27.618,21.472 -28.133,21.777 l -19.172,10.977 C 223.676,1032.17 89.3789,995.641 29.0664,890.277 -31.2266,784.898 5.29688,650.609 110.668,590.309 216.02,530.004 350.316,566.527 410.648,671.891 l 109.161,190.761 c -57.149,6.289 -107.696,34.52 -143.106,76.094"
         inkscape:connector-curvature="0" /><path
         id="path16"
         style="fill:#e60a61;fill-opacity:1;fill-rule:nonzero;stroke:none"
         d="m 758.5,1024.2 c 0.07,0.18 0.078,0.3 0.137,0.49 4.316,13.34 4.785,34.65 4.804,35.25 l -0.086,22.09 c -0.46,121.41 -99.238,219.45 -220.636,219 -121.426,-0.48 -219.442,-99.25 -219.004,-220.64 0.469,-121.41 99.25,-219.449 220.664,-219.007 l 219.785,0.84 C 741.039,914.867 740.199,972.758 758.5,1024.2"
         inkscape:connector-curvature="0" /><path
         id="path18"
         style="fill:#97c7ed;fill-opacity:1;fill-rule:nonzero;stroke:none"
         d="m 524.105,276.832 c -0.046,-0.184 -0.058,-0.293 -0.125,-0.48 -4.308,-13.352 -4.796,-34.661 -4.796,-35.243 L 519.281,219 C 519.711,97.582 618.5,-0.441406 739.898,0 861.313,0.480469 959.34,99.2617 958.891,220.648 958.441,342.047 859.652,440.094 738.238,439.645 l -219.785,-0.832 c 23.125,-52.637 23.953,-110.536 5.652,-161.981"
         inkscape:connector-curvature="0" /><path
         id="path20"
         style="fill:#adde76;fill-opacity:1;fill-rule:nonzero;stroke:none"
         d="m 259.203,564.762 c -0.176,-0.039 -0.293,-0.09 -0.488,-0.137 -13.711,-2.941 -32.402,-13.184 -32.918,-13.469 L 206.684,540.023 C 101.781,478.93 66.2734,344.379 127.348,239.469 188.48,134.559 323.031,99.0391 427.934,160.129 532.836,221.23 568.363,355.805 507.27,460.727 L 396.645,650.648 c -34.024,-46.367 -83.75,-76.023 -137.442,-85.886"
         inkscape:connector-curvature="0" /><path
         id="path22"
         style="fill:#fddd57;fill-opacity:1;fill-rule:nonzero;stroke:none"
         d="m 1023.6,734.938 c 0.17,0.046 0.29,0.105 0.49,0.136 13.71,2.93 32.4,13.192 32.91,13.477 l 19.1,11.133 c 104.92,61.093 140.44,195.644 79.33,300.566 -61.1,104.9 -195.66,140.41 -300.563,79.34 C 749.957,1078.47 714.438,943.902 775.531,838.98 L 886.156,649.059 c 34.016,46.347 83.742,76.015 137.444,85.879"
         inkscape:connector-curvature="0" /><path
         id="path24"
         style="fill:#7559b2;fill-opacity:1;fill-rule:nonzero;stroke:none"
         d="m 906.703,361.578 c 0.117,-0.156 0.235,-0.215 0.363,-0.363 9.403,-10.418 27.618,-21.465 28.114,-21.766 l 19.199,-10.976 c 105.361,-60.325 239.651,-23.801 299.961,81.562 60.29,105.379 23.77,239.668 -81.58,299.981 -105.37,60.3 -239.67,23.769 -300.002,-81.602 L 763.93,438.254 c 57.168,-6.301 107.383,-35.113 142.773,-76.676"
         inkscape:connector-curvature="0" /></g></g></svg>