<?xml version="1.0" encoding="UTF-8" standalone="no"?>
<svg
   xmlns:dc="http://purl.org/dc/elements/1.1/"
   xmlns:cc="http://creativecommons.org/ns#"
   xmlns:rdf="http://www.w3.org/1999/02/22-rdf-syntax-ns#"
   xmlns:svg="http://www.w3.org/2000/svg"
   xmlns="http://www.w3.org/2000/svg"
   viewBox="0 0 397.79999 173.46667"
   height="173.46667"
   width="397.79999"
   xml:space="preserve"
   id="svg2"
   version="1.1"><metadata
     id="metadata8"><rdf:RDF><cc:Work
         rdf:about=""><dc:format>image/svg+xml</dc:format><dc:type
           rdf:resource="http://purl.org/dc/dcmitype/StillImage" /></cc:Work></rdf:RDF></metadata><defs
     id="defs6" /><g
     transform="matrix(1.3333333,0,0,-1.3333333,0,173.46667)"
     id="g10"><g
       transform="scale(0.1)"
       id="g12"><path
         id="path14"
         style="fill:#d7058d;fill-opacity:1;fill-rule:nonzero;stroke:none"
         d="m 376.703,938.746 c -0.117,0.137 -0.215,0.203 -0.351,0.352 -9.403,10.41 -27.618,21.472 -28.133,21.777 l -19.172,10.977 C 223.676,1032.17 89.3789,995.641 29.0664,890.277 -31.2266,784.898 5.29688,650.609 110.668,590.309 216.02,530.004 350.316,566.527 410.648,671.891 l 109.161,190.761 c -57.149,6.289 -107.696,34.52 -143.106,76.094" /><path
         id="path16"
         style="fill:#e60a61;fill-opacity:1;fill-rule:nonzero;stroke:none"
         d="m 758.5,1024.2 c 0.07,0.18 0.078,0.3 0.137,0.49 4.316,13.34 4.785,34.65 4.804,35.25 l -0.086,22.09 c -0.46,121.41 -99.238,219.45 -220.636,219 -121.426,-0.48 -219.442,-99.25 -219.004,-220.64 0.469,-121.41 99.25,-219.449 220.664,-219.007 l 219.785,0.84 C 741.039,914.867 740.199,972.758 758.5,1024.2" /><path
         id="path18"
         style="fill:#97c7ed;fill-opacity:1;fill-rule:nonzero;stroke:none"
         d="m 524.105,276.832 c -0.046,-0.184 -0.058,-0.293 -0.125,-0.48 -4.308,-13.352 -4.796,-34.661 -4.796,-35.243 L 519.281,219 C 519.711,97.582 618.5,-0.441406 739.898,0 861.313,0.480469 959.34,99.2617 958.891,220.648 958.441,342.047 859.652,440.094 738.238,439.645 l -219.785,-0.832 c 23.125,-52.637 23.953,-110.536 5.652,-161.981" /><path
         id="path20"
         style="fill:#adde76;fill-opacity:1;fill-rule:nonzero;stroke:none"
         d="m 259.203,564.762 c -0.176,-0.039 -0.293,-0.09 -0.488,-0.137 -13.711,-2.941 -32.402,-13.184 -32.918,-13.469 L 206.684,540.023 C 101.781,478.93 66.2734,344.379 127.348,239.469 188.48,134.559 323.031,99.0391 427.934,160.129 532.836,221.23 568.363,355.805 507.27,460.727 L 396.645,650.648 c -34.024,-46.367 -83.75,-76.023 -137.442,-85.886" /><path
         id="path22"
         style="fill:#fddd57;fill-opacity:1;fill-rule:nonzero;stroke:none"
         d="m 1023.6,734.938 c 0.17,0.046 0.29,0.105 0.49,0.136 13.71,2.93 32.4,13.192 32.91,13.477 l 19.1,11.133 c 104.92,61.093 140.44,195.644 79.33,300.566 -61.1,104.9 -195.66,140.41 -300.563,79.34 C 749.957,1078.47 714.438,943.902 775.531,838.98 L 886.156,649.059 c 34.016,46.347 83.742,76.015 137.444,85.879" /><path
         id="path24"
         style="fill:#7559b2;fill-opacity:1;fill-rule:nonzero;stroke:none"
         d="m 906.703,361.578 c 0.117,-0.156 0.235,-0.215 0.363,-0.363 9.403,-10.418 27.618,-21.465 28.114,-21.766 l 19.199,-10.976 c 105.361,-60.325 239.651,-23.801 299.961,81.562 60.29,105.379 23.77,239.668 -81.58,299.981 -105.37,60.3 -239.67,23.769 -300.002,-81.602 L 763.93,438.254 c 57.168,-6.301 107.383,-35.113 142.773,-76.676" /><path
         id="path26"
         style="fill:#211d1d;fill-opacity:1;fill-rule:nonzero;stroke:none"
         d="m 1604.54,376.781 c -10.44,-4.324 -28.82,-14.773 -65.93,-14.773 -75.29,0 -95.47,72.41 -95.47,132.937 0,64.121 22.34,123.567 93.67,123.567 49.72,0 77.1,-31.34 77.1,-71.692 h -31.71 c 0,27.746 -16.21,48.274 -45.39,48.274 -52.6,0 -63.05,-54.035 -63.05,-101.594 0,-41.426 10.45,-108.074 71.69,-108.074 31.35,0 51.53,14.773 59.09,20.535 v -29.18" /><path
         id="path28"
         style="fill:#211d1d;fill-opacity:1;fill-rule:nonzero;stroke:none"
         d="m 1717.65,443.785 c -18.02,0 -56.2,-7.199 -56.2,-36.387 0,-16.21 11.52,-24.855 24.14,-24.855 15.49,0 32.78,10.09 39.98,26.66 4.33,10.09 6.49,14.055 6.49,34.582 z m 15.13,-55.117 h -0.72 c -4.32,-8.281 -21.25,-26.66 -52.6,-26.66 -28.1,0 -46.12,17.293 -46.12,47.918 0,39.992 51.89,53.312 81.79,53.312 6.12,0 11.16,0 16.93,1.082 0,8.293 0,27.024 -1.08,32.785 -3.96,19.09 -18.38,23.778 -31.35,23.778 -27.73,0 -33.14,-14.051 -34.94,-27.383 h -27.38 c 0.36,21.621 14.77,47.922 61.6,47.922 53.32,0 57.65,-33.508 57.65,-55.129 v -120.32 h -23.78 v 22.695" /><path
         id="path30"
         style="fill:#211d1d;fill-opacity:1;fill-rule:nonzero;stroke:none"
         d="m 1887.68,363.813 c -7.21,-1.083 -14.41,-1.805 -21.62,-1.805 -34.58,0 -47.55,13.691 -47.55,44.316 v 110.594 h -28.1 v 20.539 h 28.1 v 39.988 l 24.49,15.489 v -55.477 h 46.12 V 516.918 H 1843 V 411.363 c 0,-11.164 2.88,-28.82 28.11,-28.82 7.92,0 11.16,1.445 16.57,3.242 v -21.972" /><path
         id="path32"
         style="fill:#211d1d;fill-opacity:1;fill-rule:nonzero;stroke:none"
         d="m 1997.19,443.785 c -18.02,0 -56.2,-7.199 -56.2,-36.387 0,-16.21 11.52,-24.855 24.14,-24.855 15.49,0 32.79,10.09 39.98,26.66 4.33,10.09 6.49,14.055 6.49,34.582 z m 15.13,-55.117 h -0.72 c -4.32,-8.281 -21.25,-26.66 -52.6,-26.66 -28.1,0 -46.11,17.293 -46.11,47.918 0,39.992 51.88,53.312 81.78,53.312 6.13,0 11.16,0 16.93,1.082 0,8.293 0,27.024 -1.08,32.785 -3.96,19.09 -18.38,23.778 -31.35,23.778 -27.73,0 -33.14,-14.051 -34.94,-27.383 h -27.38 c 0.36,21.621 14.78,47.922 61.61,47.922 53.31,0 57.64,-33.508 57.64,-55.129 v -120.32 h -23.78 v 22.695" /><path
         id="path34"
         style="fill:#211d1d;fill-opacity:1;fill-rule:nonzero;stroke:none"
         d="m 2081.13,614.555 h 24.49 V 365.973 h -24.49 v 248.582" /><path
         id="path36"
         style="fill:#211d1d;fill-opacity:1;fill-rule:nonzero;stroke:none"
         d="m 2204.68,365.973 -65.56,171.484 h 26.3 l 50.07,-134.738 h 0.73 l 46.11,134.738 h 26.3 l -82.86,-241.016 h -25.22 l 24.13,69.532" /><path
         id="path38"
         style="fill:#211d1d;fill-opacity:1;fill-rule:nonzero;stroke:none"
         d="m 2367.15,462.887 c 18.01,-9.375 39.98,-19.465 39.98,-49.004 0,-34.219 -23.77,-51.875 -63.76,-51.875 -22.33,0 -39.99,5.047 -46.83,7.207 v 22.332 c 4.32,-1.434 24.85,-9.004 44.3,-9.004 23.78,0 41.8,7.93 41.8,27.746 0,17.645 -20.9,25.215 -30.98,30.977 l -15.49,8.289 c -15.85,9.004 -38.91,18.371 -38.91,46.476 0,27.735 20.54,45.391 58.72,45.391 18.37,0 32.42,-3.965 40.35,-5.774 v -22.695 c -5.77,2.168 -22.69,7.93 -39.99,7.93 -20.9,0 -34.59,-10.086 -34.59,-22.332 0,-14.055 17.3,-19.817 30.99,-27.024 l 14.41,-8.64" /><path
         id="path40"
         style="fill:#211d1d;fill-opacity:1;fill-rule:nonzero;stroke:none"
         d="m 2515.57,363.813 c -7.21,-1.083 -14.41,-1.805 -21.62,-1.805 -34.58,0 -47.55,13.691 -47.55,44.316 v 110.594 h -28.1 v 20.539 h 28.1 v 39.988 l 24.49,15.489 v -55.477 h 46.12 v -20.539 h -46.12 V 411.363 c 0,-11.164 2.88,-28.82 28.11,-28.82 7.92,0 11.16,1.445 16.57,3.242 v -21.972" /><path
         id="path42"
         style="fill:#211d1d;fill-opacity:1;fill-rule:nonzero;stroke:none"
         d="m 1455.4,265.641 h 120.32 v -23.422 h -92.23 V 159 h 87.9 v -23.418 h -87.9 V 17.0586 H 1455.4 V 265.641" /><path
         id="path44"
         style="fill:#211d1d;fill-opacity:1;fill-rule:nonzero;stroke:none"
         d="m 1664.69,33.6289 c 28.1,0 42.51,25.9414 42.51,69.1721 0,42.871 -14.41,69.168 -42.51,69.168 -27.74,0 -41.79,-26.297 -41.79,-69.168 0,-43.2307 14.05,-69.1721 41.79,-69.1721 z m -69.89,68.8121 c 0,50.071 19.45,90.059 69.89,90.059 50.79,0 70.61,-39.988 70.61,-90.059 0,-50.0816 -19.82,-89.3512 -70.61,-89.3512 -50.44,0 -69.89,39.2696 -69.89,89.3512" /><path
         id="path46"
         style="fill:#211d1d;fill-opacity:1;fill-rule:nonzero;stroke:none"
         d="m 1876.87,56.6797 h -0.72 c -4.33,-14.0508 -15.13,-43.5899 -53.32,-43.5899 -29.54,0 -43.95,24.5 -43.95,52.961 V 188.539 h 24.49 V 93.4297 c 0,-29.5391 0,-55.8399 25.23,-55.8399 32.42,0 48.27,49.3594 48.27,80.3322 v 70.617 h 24.5 V 17.0586 h -24.5 v 39.6211" /><path
         id="path48"
         style="fill:#211d1d;fill-opacity:1;fill-rule:nonzero;stroke:none"
         d="m 1960.43,188.539 h 24.51 V 148.91 h 0.72 c 4.68,14.051 15.49,43.59 53.67,43.59 29.18,0 43.96,-24.5 43.96,-52.949 V 17.0586 h -24.51 V 112.16 c 0,29.539 0,55.84 -25.21,55.84 -32.42,0 -48.63,-49.352 -48.63,-80.3281 V 17.0586 h -24.51 V 188.539" /><path
         id="path50"
         style="fill:#211d1d;fill-opacity:1;fill-rule:nonzero;stroke:none"
         d="m 2191.71,33.6289 c 28.1,0 40.35,38.9024 40.35,68.4411 0,38.2 -13.69,69.899 -39.63,69.899 -29.18,0 -36.38,-38.91 -36.38,-75.2971 0,-21.9727 3.24,-63.043 35.66,-63.043 z m 40.35,12.6094 h -0.72 c -3.6,-12.25 -17.29,-33.1485 -44.67,-33.1485 -41.43,0 -58.73,33.8711 -58.73,88.2622 0,46.117 16.22,91.148 58.36,91.148 29.91,0 40.72,-19.809 45.04,-32.07 h 0.72 v 105.211 h 24.5 V 17.0586 h -24.5 v 29.1797" /><path
         id="path52"
         style="fill:#211d1d;fill-opacity:1;fill-rule:nonzero;stroke:none"
         d="m 2384.44,94.8711 c -18.02,0 -56.2,-7.1992 -56.2,-36.3906 0,-16.211 11.52,-24.8516 24.14,-24.8516 15.49,0 32.78,10.0899 39.98,26.6602 4.32,10.0898 6.48,14.0507 6.48,34.582 z M 2399.57,39.75 h -0.73 c -4.31,-8.2812 -21.25,-26.6602 -52.59,-26.6602 -28.1,0 -46.12,17.3008 -46.12,47.9219 0,39.9883 51.89,53.3083 81.79,53.3083 6.12,0 11.16,0 16.92,1.078 0,8.301 0,27.032 -1.07,32.793 -3.97,19.09 -18.38,23.778 -31.35,23.778 -27.73,0 -33.14,-14.059 -34.94,-27.387 h -27.38 c 0.36,21.629 14.77,47.918 61.61,47.918 53.31,0 57.63,-33.5 57.63,-55.121 V 17.0586 h -23.77 V 39.75" /><path
         id="path54"
         style="fill:#211d1d;fill-opacity:1;fill-rule:nonzero;stroke:none"
         d="m 2561.67,14.8984 c -7.2,-1.0898 -14.41,-1.8086 -21.62,-1.8086 -34.58,0 -47.55,13.6915 -47.55,44.3204 V 168 h -28.1 v 20.539 h 28.1 v 39.992 l 24.5,15.489 v -55.481 h 46.11 V 168 H 2517 V 62.4492 c 0,-11.1679 2.88,-28.8203 28.1,-28.8203 7.92,0 11.16,1.4414 16.57,3.2422 V 14.8984" /><path
         id="path56"
         style="fill:#211d1d;fill-opacity:1;fill-rule:nonzero;stroke:none"
         d="m 2602.74,188.539 h 24.49 V 17.0586 h -24.49 z m -3.97,77.102 h 32.43 v -32.43 h -32.43 v 32.43" /><path
         id="path58"
         style="fill:#211d1d;fill-opacity:1;fill-rule:nonzero;stroke:none"
         d="m 2745.03,33.6289 c 28.1,0 42.51,25.9414 42.51,69.1721 0,42.871 -14.41,69.168 -42.51,69.168 -27.74,0 -41.79,-26.297 -41.79,-69.168 0,-43.2307 14.05,-69.1721 41.79,-69.1721 z m -69.89,68.8121 c 0,50.071 19.45,90.059 69.89,90.059 50.8,0 70.61,-39.988 70.61,-90.059 0,-50.0816 -19.81,-89.3512 -70.61,-89.3512 -50.44,0 -69.89,39.2696 -69.89,89.3512" /><path
         id="path60"
         style="fill:#211d1d;fill-opacity:1;fill-rule:nonzero;stroke:none"
         d="m 2860.66,188.539 h 24.5 V 148.91 h 0.72 c 4.68,14.051 15.49,43.59 53.68,43.59 29.18,0 43.95,-24.5 43.95,-52.949 V 17.0586 h -24.5 V 112.16 c 0,29.539 0,55.84 -25.22,55.84 -32.42,0 -48.63,-49.352 -48.63,-80.3281 V 17.0586 h -24.5 V 188.539" /></g></g></svg>