<?xml version="1.0" encoding="utf-8"?>
<!-- Generator: Adobe Illustrator 23.1.0, SVG Export Plug-In . SVG Version: 6.00 Build 0)  -->
<svg version="1.1" id="Layer_1" xmlns="http://www.w3.org/2000/svg" xmlns:xlink="http://www.w3.org/1999/xlink" x="0px" y="0px"
	 viewBox="0 0 1920 200" style="enable-background:new 0 0 1920 200;" xml:space="preserve">
<polygon style="fill:#916A7B;" points="1510,22 1436,22 1401,46 1545,46 "/>
<polygon style="fill:#916A7B;" points="1456,7 1421,7 1401,46 1476,46 "/>
<g>
	<g>
		<rect x="824" y="49.9" style="fill:#C7B97F;" width="300" height="150"/>
	</g>
	<rect x="824" y="41.9" style="fill:#F0EDBE;" width="300" height="8"/>
	<rect x="819" y="49.9" style="fill:#A89236;" width="310" height="5"/>
	<rect x="949" y="54.9" style="fill:#F0EDBE;" width="50" height="145"/>
	<rect x="822" y="124.9" style="fill:#C43030;" width="304" height="20"/>
	<ellipse style="fill:#C43030;" cx="975" cy="159.9" rx="15" ry="10"/>
	<rect x="829" y="124.9" style="fill:#FFFFFF;" width="10" height="20"/>
	<rect x="849" y="124.9" style="fill:#FFFFFF;" width="10" height="20"/>
	<rect x="869" y="124.9" style="fill:#FFFFFF;" width="10" height="20"/>
	<rect x="889" y="124.9" style="fill:#FFFFFF;" width="10" height="20"/>
	<rect x="909" y="124.9" style="fill:#FFFFFF;" width="10" height="20"/>
	<rect x="929" y="124.9" style="fill:#FFFFFF;" width="10" height="20"/>
	<rect x="949" y="124.9" style="fill:#FFFFFF;" width="10" height="20"/>
	<rect x="969" y="124.9" style="fill:#FFFFFF;" width="10" height="20"/>
	<rect x="989" y="124.9" style="fill:#FFFFFF;" width="10" height="20"/>
	<rect x="1009" y="124.9" style="fill:#FFFFFF;" width="10" height="20"/>
	<rect x="1029" y="124.9" style="fill:#FFFFFF;" width="10" height="20"/>
	<rect x="1049" y="124.9" style="fill:#FFFFFF;" width="10" height="20"/>
	<rect x="1069" y="124.9" style="fill:#FFFFFF;" width="10" height="20"/>
	<rect x="1089" y="124.9" style="fill:#FFFFFF;" width="10" height="20"/>
	<rect x="1109" y="124.9" style="fill:#FFFFFF;" width="10" height="20"/>
	<g>
		<rect x="954" y="54.9" style="fill:#C7B97F;" width="40" height="70"/>
	</g>
	<g>
		<rect x="958.6" y="84.9" style="fill:#F0EDBE;" width="30" height="40"/>
		<ellipse style="fill:#F0EDBE;" cx="973.6" cy="84.9" rx="15" ry="10"/>
		<g>
			<rect x="963.6" y="88.9" style="fill:#42210B;" width="20" height="36"/>
			<ellipse style="fill:#42210B;" cx="973.6" cy="88.9" rx="10" ry="9"/>
			<line style="fill:none;stroke:#F0EDBE;stroke-miterlimit:10;" x1="963.6" y1="88.9" x2="983.6" y2="88.9"/>
			<line style="fill:none;stroke:#F0EDBE;stroke-miterlimit:10;" x1="973.6" y1="89.4" x2="973.6" y2="124.9"/>
		</g>
	</g>
	<g>
		<rect x="871" y="84.9" style="fill:#F0EDBE;" width="30" height="40"/>
		<ellipse style="fill:#F0EDBE;" cx="886" cy="84.9" rx="15" ry="10"/>
		<g>
			<rect x="876" y="88.9" style="fill:#42210B;" width="20" height="36"/>
			<ellipse style="fill:#42210B;" cx="886" cy="88.9" rx="10" ry="9"/>
			<line style="fill:none;stroke:#F0EDBE;stroke-miterlimit:10;" x1="876" y1="88.9" x2="896" y2="88.9"/>
			<line style="fill:none;stroke:#F0EDBE;stroke-miterlimit:10;" x1="886" y1="89.4" x2="886" y2="124.9"/>
		</g>
	</g>
	<g>
		<rect x="1047" y="84.9" style="fill:#F0EDBE;" width="30" height="40"/>
		<ellipse style="fill:#F0EDBE;" cx="1062" cy="84.9" rx="15" ry="10"/>
		<g>
			<rect x="1052" y="88.9" style="fill:#42210B;" width="20" height="36"/>
			<ellipse style="fill:#42210B;" cx="1062" cy="88.9" rx="10" ry="9"/>
			<line style="fill:none;stroke:#F0EDBE;stroke-miterlimit:10;" x1="1052" y1="88.9" x2="1072" y2="88.9"/>
			<line style="fill:none;stroke:#F0EDBE;stroke-miterlimit:10;" x1="1062" y1="89.4" x2="1062" y2="124.9"/>
		</g>
	</g>
	<rect x="824" y="62.9" style="fill:#F0EDBE;" width="300" height="8"/>
	<polygon style="opacity:0.3;" points="1124,68.9 824,61.3 824,54.9 1124,54.9 	"/>
	<g>
		<rect x="831" y="79.9" style="fill:#F0EDBE;" width="30" height="45"/>
		<rect x="836" y="84.4" style="fill:#42210B;" width="20" height="40.5"/>
		<line style="fill:none;stroke:#F0EDBE;stroke-miterlimit:10;" x1="846" y1="83.9" x2="846" y2="124.9"/>
		<line style="fill:none;stroke:#F0EDBE;stroke-miterlimit:10;" x1="836" y1="104.4" x2="856" y2="104.4"/>
	</g>
	<g>
		<rect x="910.9" y="79.9" style="fill:#F0EDBE;" width="30" height="45"/>
		<rect x="915.9" y="84.4" style="fill:#42210B;" width="20" height="40.5"/>
		<line style="fill:none;stroke:#F0EDBE;stroke-miterlimit:10;" x1="925.9" y1="83.9" x2="925.9" y2="124.9"/>
		<line style="fill:none;stroke:#F0EDBE;stroke-miterlimit:10;" x1="915.9" y1="104.4" x2="935.9" y2="104.4"/>
	</g>
	<g>
		<rect x="1007" y="79.9" style="fill:#F0EDBE;" width="30" height="45"/>
		<rect x="1012" y="84.4" style="fill:#42210B;" width="20" height="40.5"/>
		<line style="fill:none;stroke:#F0EDBE;stroke-miterlimit:10;" x1="1022" y1="83.9" x2="1022" y2="124.9"/>
		<line style="fill:none;stroke:#F0EDBE;stroke-miterlimit:10;" x1="1012" y1="104.4" x2="1032" y2="104.4"/>
	</g>
	<g>
		<rect x="1087" y="79.9" style="fill:#F0EDBE;" width="30" height="45"/>
		<rect x="1092" y="84.4" style="fill:#42210B;" width="20" height="40.5"/>
		<line style="fill:none;stroke:#F0EDBE;stroke-miterlimit:10;" x1="1102" y1="83.9" x2="1102" y2="124.9"/>
		<line style="fill:none;stroke:#F0EDBE;stroke-miterlimit:10;" x1="1092" y1="104.4" x2="1112" y2="104.4"/>
	</g>
	<polygon style="opacity:0.3;" points="1124,77.9 824,74.1 824,70.9 1124,70.9 	"/>
	<g>
		<rect x="910.5" y="160" style="fill:#F0EDBE;" width="30" height="40"/>
		<ellipse style="fill:#F0EDBE;" cx="925.5" cy="160" rx="15" ry="10"/>
		<g>
			<rect x="915.5" y="164" style="fill:#42210B;" width="20" height="36"/>
			<ellipse style="fill:#42210B;" cx="925.5" cy="164" rx="10" ry="9"/>
			<line style="fill:none;stroke:#F0EDBE;stroke-miterlimit:10;" x1="915.5" y1="164" x2="935.5" y2="164"/>
			<line style="fill:none;stroke:#F0EDBE;stroke-miterlimit:10;" x1="925.5" y1="164.5" x2="925.5" y2="200"/>
		</g>
	</g>
	<g>
		<rect x="830.5" y="160" style="fill:#F0EDBE;" width="30" height="40"/>
		<ellipse style="fill:#F0EDBE;" cx="845.5" cy="160" rx="15" ry="10"/>
		<g>
			<rect x="835.5" y="164" style="fill:#42210B;" width="20" height="36"/>
			<ellipse style="fill:#42210B;" cx="845.5" cy="164" rx="10" ry="9"/>
			<line style="fill:none;stroke:#F0EDBE;stroke-miterlimit:10;" x1="835.5" y1="164" x2="855.5" y2="164"/>
			<line style="fill:none;stroke:#F0EDBE;stroke-miterlimit:10;" x1="845.5" y1="164.5" x2="845.5" y2="200"/>
		</g>
	</g>
	<g>
		<rect x="1007.5" y="160" style="fill:#F0EDBE;" width="30" height="40"/>
		<ellipse style="fill:#F0EDBE;" cx="1022.5" cy="160" rx="15" ry="10"/>
		<g>
			<rect x="1012.5" y="164" style="fill:#42210B;" width="20" height="36"/>
			<ellipse style="fill:#42210B;" cx="1022.5" cy="164" rx="10" ry="9"/>
			<line style="fill:none;stroke:#F0EDBE;stroke-miterlimit:10;" x1="1012.5" y1="164" x2="1032.5" y2="164"/>
			<line style="fill:none;stroke:#F0EDBE;stroke-miterlimit:10;" x1="1022.5" y1="164.5" x2="1022.5" y2="200"/>
		</g>
	</g>
	<g>
		<rect x="1086.5" y="160" style="fill:#F0EDBE;" width="30" height="40"/>
		<ellipse style="fill:#F0EDBE;" cx="1101.5" cy="160" rx="15" ry="10"/>
		<g>
			<rect x="1091.5" y="164" style="fill:#42210B;" width="20" height="36"/>
			<ellipse style="fill:#42210B;" cx="1101.5" cy="164" rx="10" ry="9"/>
			<line style="fill:none;stroke:#F0EDBE;stroke-miterlimit:10;" x1="1091.5" y1="164" x2="1111.5" y2="164"/>
			<line style="fill:none;stroke:#F0EDBE;stroke-miterlimit:10;" x1="1101.5" y1="164.5" x2="1101.5" y2="200"/>
		</g>
	</g>
	<rect x="824" y="189.9" style="fill:#F0EDBE;" width="300" height="10"/>
	<rect x="960" y="159.9" style="fill:#C43030;" width="30" height="40"/>
	<g>
		<rect x="870" y="160" style="fill:#F0EDBE;" width="30" height="40"/>
		<ellipse style="fill:#F0EDBE;" cx="885" cy="160" rx="15" ry="10"/>
		<g>
			<rect x="875" y="164" style="fill:#42210B;" width="20" height="36"/>
			<ellipse style="fill:#42210B;" cx="885" cy="164" rx="10" ry="9"/>
			<line style="fill:none;stroke:#F0EDBE;stroke-miterlimit:10;" x1="875" y1="164" x2="895" y2="164"/>
			<line style="fill:none;stroke:#F0EDBE;stroke-miterlimit:10;" x1="885" y1="164.5" x2="885" y2="200"/>
		</g>
	</g>
	<g>
		<rect x="1047" y="159.9" style="fill:#F0EDBE;" width="30" height="40"/>
		<ellipse style="fill:#F0EDBE;" cx="1062" cy="159.9" rx="15" ry="10"/>
		<g>
			<rect x="1052.5" y="164" style="fill:#42210B;" width="20" height="36"/>
			<ellipse style="fill:#42210B;" cx="1062.5" cy="164" rx="10" ry="9"/>
			<line style="fill:none;stroke:#F0EDBE;stroke-miterlimit:10;" x1="1052.5" y1="164" x2="1072.5" y2="164"/>
			<line style="fill:none;stroke:#F0EDBE;stroke-miterlimit:10;" x1="1062.5" y1="164.5" x2="1062.5" y2="200"/>
		</g>
	</g>
	<polygon style="opacity:0.3;" points="1124,159.9 824,151.8 824,144.9 1124,144.9 	"/>
	<rect x="860.3" y="23.9" style="fill:#F0EDBE;" width="50" height="10"/>
	<path style="fill:#F0EDBE;" d="M910.3,13.9c-16.8-4.5-33.5-4.6-50,0l-5,10h60L910.3,13.9z"/>
	<rect x="822" y="124.9" style="fill:#C43030;" width="304" height="3"/>
	<rect x="855.5" y="30.9" style="fill:#DEC768;" width="60" height="3"/>
	<rect x="824" y="38.9" style="fill:#DEC768;" width="300" height="3"/>
	<rect x="855.5" y="33.9" style="fill:#F0EDBE;" width="60" height="8"/>
	<rect x="1029.7" y="33.9" style="fill:#F0EDBE;" width="60" height="8"/>
	<rect x="1034.7" y="24.4" style="fill:#F0EDBE;" width="50" height="10"/>
	<path style="fill:#F0EDBE;" d="M1084.7,14.4c-16.8-4.5-33.5-4.6-50,0l-5,10h60L1084.7,14.4z"/>
	<rect x="1029.7" y="31.4" style="fill:#DEC768;" width="60" height="3"/>
</g>
<g>
	<rect x="1190" y="50" style="fill:#A9D9C1;" width="150" height="150"/>
	<path style="opacity:0.3;" d="M1333,128V63h-133v65h8V90c0-5.5,6.7-10,15-10s15,4.5,15,10v38h15V90c0-5.5,6.7-10,15-10
		s15,4.5,15,10v38h15V90c0-5.5,6.7-10,15-10s15,4.5,15,10v38H1333z"/>
	<path style="fill:#83C4A4;" d="M1197,61v67h8V88c0-5.5,6.7-10,15-10s15,4.5,15,10v40h15V88c0-5.5,6.7-10,15-10s15,4.5,15,10v40h15
		V88c0-5.5,6.7-10,15-10s15,4.5,15,10v40h8V61H1197z"/>
	<g>
		<rect x="1250" y="160" style="fill:#FFFFFF;" width="30" height="40"/>
		<ellipse style="fill:#FFFFFF;" cx="1265" cy="160" rx="15" ry="10"/>
		<g>
			<rect x="1255" y="164" style="fill:#42210B;" width="20" height="36"/>
			<ellipse style="fill:#42210B;" cx="1265" cy="164" rx="10" ry="9"/>
			<line style="fill:none;stroke:#FFFFFF;stroke-miterlimit:10;" x1="1255" y1="164" x2="1275" y2="164"/>
			<line style="fill:none;stroke:#FFFFFF;stroke-miterlimit:10;" x1="1265" y1="164.5" x2="1265" y2="200"/>
		</g>
	</g>
	<rect x="1190" y="50" style="fill:#FFFFFF;" width="7" height="150"/>
	<rect x="1333" y="50" style="fill:#FFFFFF;" width="7" height="150"/>
	<rect x="1190" y="128" style="opacity:0.8;fill:#518069;" width="150" height="5"/>
	<line style="fill:none;stroke:#FFFFFF;stroke-miterlimit:10;" x1="1190" y1="131" x2="1341" y2="131"/>
	<g>
		<rect x="1197" y="50.1" style="opacity:0.8;fill:#518069;" width="136.1" height="5"/>
		<line style="fill:none;stroke:#FFFFFF;stroke-miterlimit:10;" x1="1197" y1="53.1" x2="1334" y2="53.1"/>
	</g>
	<path style="opacity:0.3;" d="M1333,200v-65h-133v65h8v-38c0-5.5,6.7-10,15-10s15,4.5,15,10v38h15v-38c0-5.5,6.7-10,15-10
		s15,4.5,15,10v38h15v-38c0-5.5,6.7-10,15-10s15,4.5,15,10v38H1333z"/>
	<g>
		<rect x="1300" y="164" style="fill:#42210B;" width="20" height="36"/>
		<ellipse style="fill:#42210B;" cx="1310" cy="164" rx="10" ry="9"/>
		<line style="fill:none;stroke:#FFFFFF;stroke-miterlimit:10;" x1="1300" y1="164" x2="1320" y2="164"/>
		<line style="fill:none;stroke:#FFFFFF;stroke-miterlimit:10;" x1="1310" y1="164.5" x2="1310" y2="200"/>
	</g>
	<path style="fill:#83C4A4;" d="M1197,133v67h8v-40c0-5.5,6.7-10,15-10s15,4.5,15,10v40h15v-40c0-5.5,6.7-10,15-10s15,4.5,15,10v40
		h15v-40c0-5.5,6.7-10,15-10s15,4.5,15,10v40h8v-67H1197z"/>
	<polygon style="opacity:0.3;" points="1333,154 1197,144.7 1197,133 1333,133 	"/>
	<polygon style="opacity:0.3;" points="1333,76 1197,66.7 1197,55 1333,55 	"/>
	<path style="opacity:0.7;fill:#FFFFFF;" d="M1197,133v67h2.7v-48h0c0.4-7.2,9.4-13,20.4-13s20,5.8,20.4,13h0v48h4.1v-48h0
		c0.4-7.2,9.4-13,20.4-13s20,5.8,20.4,13h0v48h4.1v-48h0c0.4-7.2,9.4-13,20.4-13s20,5.8,20.4,13h0v48h2.7v-67H1197z"/>
	<g>
		<rect x="1210" y="164" style="fill:#42210B;" width="20" height="36"/>
		<ellipse style="fill:#42210B;" cx="1220" cy="164" rx="10" ry="9"/>
		<line style="fill:none;stroke:#FFFFFF;stroke-miterlimit:10;" x1="1210" y1="164" x2="1230" y2="164"/>
		<line style="fill:none;stroke:#FFFFFF;stroke-miterlimit:10;" x1="1220" y1="164.5" x2="1220" y2="200"/>
	</g>
	<g>
		<rect x="1255" y="92" style="fill:#42210B;" width="20" height="36"/>
		<line style="fill:none;stroke:#FFFFFF;stroke-miterlimit:10;" x1="1265" y1="92" x2="1265" y2="128"/>
	</g>
	<g>
		<rect x="1300" y="91.7" style="fill:#42210B;" width="20" height="36"/>
		<line style="fill:none;stroke:#FFFFFF;stroke-miterlimit:10;" x1="1310" y1="91.7" x2="1310" y2="127.7"/>
	</g>
	<g>
		<rect x="1210" y="91.7" style="fill:#42210B;" width="20" height="36"/>
		<line style="fill:none;stroke:#FFFFFF;stroke-miterlimit:10;" x1="1220" y1="91.7" x2="1220" y2="127.7"/>
	</g>
	<rect x="1190" y="108" style="opacity:0.5;fill:#FFFFFF;" width="150" height="20"/>
	<path style="fill:none;stroke:#FFFFFF;stroke-miterlimit:10;" d="M1266,125.5"/>
	<rect x="1197" y="108" style="fill:#FFFFFF;" width="136" height="2"/>
	<rect x="1197" y="55" style="fill:#FFFFFF;" width="136" height="6"/>
	<path style="opacity:0.7;fill:#FFFFFF;" d="M1197.2,61.1v67h2.7v-48h0c0.4-7.2,9.3-13,20.3-13s19.9,5.8,20.3,13h0v48h4.1v-48h0
		c0.4-7.2,9.3-13,20.3-13s19.9,5.8,20.3,13h0v48h4.1v-48h0c0.4-7.2,9.3-13,20.3-13s19.9,5.8,20.3,13h0v48h2.7v-67H1197.2z"/>
	<rect x="1197" y="61" style="opacity:0.5;fill:#FFFFFF;" width="136" height="3"/>
	<rect x="1190" y="35" style="fill:#FFFFFF;" width="150" height="15"/>
	<rect x="1187" y="45" style="fill:#83C4A4;" width="156" height="5"/>
	<rect x="1187" y="33" style="fill:#83C4A4;" width="156" height="2"/>
	<g>
		<rect x="1230" y="15" style="fill:#FFFFFF;" width="70" height="20"/>
		<rect x="1230" y="13" style="fill:#83C4A4;" width="70" height="2"/>
	</g>
	<ellipse style="fill:#83C4A4;" cx="1264.5" cy="28.5" rx="16.5" ry="6.5"/>
</g>
<g>
	<rect x="331.7" y="50" style="fill:#F2D0DC;" width="150" height="150"/>
	<path style="opacity:0.3;" d="M474.7,128V63h-133v65h8V90c0-5.5,6.7-10,15-10s15,4.5,15,10v38h15V90c0-5.5,6.7-10,15-10
		s15,4.5,15,10v38h15V90c0-5.5,6.7-10,15-10s15,4.5,15,10v38H474.7z"/>
	<path style="fill:#E66A95;" d="M338.7,61v67h8V88c0-5.5,6.7-10,15-10s15,4.5,15,10v40h15V88c0-5.5,6.7-10,15-10s15,4.5,15,10v40h15
		V88c0-5.5,6.7-10,15-10s15,4.5,15,10v40h8V61H338.7z"/>
	<g>
		<rect x="391.7" y="160" style="fill:#FFFFFF;" width="30" height="40"/>
		<ellipse style="fill:#FFFFFF;" cx="406.7" cy="160" rx="15" ry="10"/>
		<g>
			<rect x="396.7" y="164" style="fill:#42210B;" width="20" height="36"/>
			<ellipse style="fill:#42210B;" cx="406.7" cy="164" rx="10" ry="9"/>
			<line style="fill:none;stroke:#FFFFFF;stroke-miterlimit:10;" x1="396.7" y1="164" x2="416.7" y2="164"/>
			<line style="fill:none;stroke:#FFFFFF;stroke-miterlimit:10;" x1="406.7" y1="164.5" x2="406.7" y2="200"/>
		</g>
	</g>
	<rect x="331.7" y="50" style="fill:#FFFFFF;" width="7" height="150"/>
	<rect x="474.7" y="50" style="fill:#FFFFFF;" width="7" height="150"/>
	<rect x="331.7" y="128" style="opacity:0.8;fill:#A38453;" width="150" height="5"/>
	<line style="fill:none;stroke:#FFFFFF;stroke-miterlimit:10;" x1="331.7" y1="131" x2="482.7" y2="131"/>
	<g>
		<rect x="338.7" y="50.1" style="opacity:0.8;fill:#A38453;" width="136.1" height="5"/>
		<line style="fill:none;stroke:#FFFFFF;stroke-miterlimit:10;" x1="338.7" y1="53.1" x2="475.7" y2="53.1"/>
	</g>
	<path style="opacity:0.3;" d="M474.7,200v-65h-133v65h8v-38c0-5.5,6.7-10,15-10s15,4.5,15,10v38h15v-38c0-5.5,6.7-10,15-10
		s15,4.5,15,10v38h15v-38c0-5.5,6.7-10,15-10s15,4.5,15,10v38H474.7z"/>
	<g>
		<rect x="441.6" y="164" style="fill:#42210B;" width="20" height="36"/>
		<ellipse style="fill:#42210B;" cx="451.6" cy="164" rx="10" ry="9"/>
		<line style="fill:none;stroke:#FFFFFF;stroke-miterlimit:10;" x1="441.6" y1="164" x2="461.6" y2="164"/>
		<line style="fill:none;stroke:#FFFFFF;stroke-miterlimit:10;" x1="451.6" y1="164.5" x2="451.6" y2="200"/>
	</g>
	<path style="fill:#E66A95;" d="M338.7,133v67h8v-40c0-5.5,6.7-10,15-10s15,4.5,15,10v40h15v-40c0-5.5,6.7-10,15-10s15,4.5,15,10v40
		h15v-40c0-5.5,6.7-10,15-10s15,4.5,15,10v40h8v-67H338.7z"/>
	<polygon style="opacity:0.3;" points="474.7,154 338.7,144.7 338.7,133 474.7,133 	"/>
	<polygon style="opacity:0.3;" points="474.7,76 338.7,66.7 338.7,55 474.7,55 	"/>
	<path style="opacity:0.7;fill:#FFFFFF;" d="M338.7,133v67h2.7v-48h0c0.4-7.2,9.4-13,20.4-13c11,0,20,5.8,20.4,13h0v48h4.1v-48h0
		c0.4-7.2,9.4-13,20.4-13c11,0,20,5.8,20.4,13h0v48h4.1v-48h0c0.4-7.2,9.4-13,20.4-13s20,5.8,20.4,13h0v48h2.7v-67H338.7z"/>
	<g>
		<rect x="351.6" y="164" style="fill:#42210B;" width="20" height="36"/>
		<ellipse style="fill:#42210B;" cx="361.6" cy="164" rx="10" ry="9"/>
		<line style="fill:none;stroke:#FFFFFF;stroke-miterlimit:10;" x1="351.6" y1="164" x2="371.6" y2="164"/>
		<line style="fill:none;stroke:#FFFFFF;stroke-miterlimit:10;" x1="361.6" y1="164.5" x2="361.6" y2="200"/>
	</g>
	<g>
		<rect x="396.7" y="92" style="fill:#42210B;" width="20" height="36"/>
		<line style="fill:none;stroke:#FFFFFF;stroke-miterlimit:10;" x1="406.7" y1="92" x2="406.7" y2="128"/>
	</g>
	<g>
		<rect x="441.6" y="91.7" style="fill:#42210B;" width="20" height="36"/>
		<line style="fill:none;stroke:#FFFFFF;stroke-miterlimit:10;" x1="451.6" y1="91.7" x2="451.6" y2="127.7"/>
	</g>
	<g>
		<rect x="351.6" y="91.7" style="fill:#42210B;" width="20" height="36"/>
		<line style="fill:none;stroke:#FFFFFF;stroke-miterlimit:10;" x1="361.6" y1="91.7" x2="361.6" y2="127.7"/>
	</g>
	<rect x="331.7" y="108" style="opacity:0.5;fill:#FFFFFF;" width="150" height="20"/>
	<path style="fill:none;stroke:#FFFFFF;stroke-miterlimit:10;" d="M407.7,125.5"/>
	<rect x="338.7" y="108" style="fill:#FFFFFF;" width="136" height="2"/>
	<rect x="338.7" y="55" style="fill:#FFFFFF;" width="136" height="6"/>
	<path style="opacity:0.7;fill:#FFFFFF;" d="M338.9,61.1v67h2.7v-48h0c0.4-7.2,9.3-13,20.3-13c11,0,19.9,5.8,20.3,13h0v48h4.1v-48h0
		c0.4-7.2,9.3-13,20.3-13s19.9,5.8,20.3,13h0v48h4.1v-48h0c0.4-7.2,9.3-13,20.3-13c11,0,19.9,5.8,20.3,13h0v48h2.7v-67H338.9z"/>
	<rect x="338.7" y="61" style="opacity:0.5;fill:#FFFFFF;" width="136" height="3"/>
	<rect x="331.7" y="35" style="fill:#FFFFFF;" width="150" height="15"/>
	<rect x="328.7" y="45" style="fill:#E66A95;" width="156" height="5"/>
	<rect x="328.7" y="33" style="fill:#E66A95;" width="156" height="2"/>
	<g>
		<rect x="371.7" y="15" style="fill:#FFFFFF;" width="70" height="20"/>
		<rect x="371.7" y="13" style="fill:#E66A95;" width="70" height="2"/>
	</g>
	<ellipse style="fill:#E66A95;" cx="406.2" cy="28.5" rx="16.5" ry="6.5"/>
</g>
<g>
	<rect x="551" y="46" style="fill:#8698BF;" width="209" height="4"/>
	<rect x="556" y="50" style="fill:#EDE2D3;" width="200" height="150"/>
	<rect x="551" y="44" style="fill:#1A1A63;" width="209" height="2"/>
	<rect x="551" y="40" style="fill:#8698BF;" width="209" height="4"/>
	<rect x="551" y="38" style="fill:#E6E6FF;" width="209" height="2"/>
	<rect x="753" y="50" style="fill:#FFFFFF;" width="3" height="74"/>
	<g>
		<path style="fill:#FFFFFF;" d="M707,152.8c0-10.4,40-10.4,40,0V200h-40V152.8z"/>
	</g>
	<path style="fill:#2B2BA1;" d="M712,157.5c0-9.4,30-9.4,30,0V200h-30V157.5z"/>
	<polygon style="opacity:0.3;" points="756,156 556,144.8 556,135 756,135 	"/>
	<rect x="595" y="158" style="fill:#FAF7F3;" width="60" height="42"/>
	<g>
		<rect x="644.1" y="158.1" style="fill:#2B2BA1;" width="8.9" height="31.9"/>
		<g>
			<rect x="644.5" y="160.4" style="fill:#515D7A;" width="8.1" height="28.6"/>
			<line style="fill:none;stroke:#FFFFFF;stroke-miterlimit:10;" x1="644.5" y1="174.7" x2="652.6" y2="174.7"/>
			<line style="fill:none;stroke:#FFFFFF;stroke-miterlimit:10;" x1="648.7" y1="160.4" x2="648.7" y2="189"/>
		</g>
	</g>
	<g>
		<rect x="596.6" y="158.1" style="fill:#2B2BA1;" width="8.9" height="31.9"/>
		<g>
			<rect x="597" y="160.4" style="fill:#515D7A;" width="8.1" height="28.6"/>
			<line style="fill:none;stroke:#FFFFFF;stroke-miterlimit:10;" x1="597" y1="174.7" x2="605.2" y2="174.7"/>
			<line style="fill:none;stroke:#FFFFFF;stroke-miterlimit:10;" x1="601.2" y1="160.4" x2="601.2" y2="189"/>
		</g>
	</g>
	<g>
		<rect x="611.8" y="158.1" style="fill:#2B2BA1;" width="26" height="31.9"/>
		<g>
			<rect x="613" y="160.4" style="fill:#515D7A;" width="23.8" height="28.6"/>
			<line style="fill:none;stroke:#FFFFFF;stroke-miterlimit:10;" x1="613" y1="174.7" x2="636.7" y2="174.7"/>
			<line style="fill:none;stroke:#FFFFFF;stroke-miterlimit:10;" x1="625.3" y1="160.4" x2="625.3" y2="189"/>
		</g>
	</g>
	<g>
		<rect x="556" y="50" style="fill:#FFFFFF;" width="3" height="74"/>
		<rect x="556" y="126" style="fill:#FFFFFF;" width="3" height="74"/>
	</g>
	<rect x="753" y="126" style="fill:#FFFFFF;" width="3" height="74"/>
	<polygon style="opacity:0.3;" points="673,169 577,163.1 577,158 673,158 	"/>
	<rect x="577" y="158" style="fill:#FFFFFF;" width="3" height="42"/>
	<rect x="587" y="158" style="fill:#FFFFFF;" width="3" height="42"/>
	<rect x="660" y="158" style="fill:#FFFFFF;" width="3" height="42"/>
	<rect x="670" y="123" style="fill:#FFFFFF;" width="3" height="77"/>
	<rect x="568" y="50" style="fill:#FFFFFF;" width="3" height="74"/>
	<rect x="568" y="126" style="fill:#FFFFFF;" width="3" height="74"/>
	<rect x="659" y="50" style="fill:#FFFFFF;" width="3" height="74"/>
	<rect x="670" y="50" style="fill:#FFFFFF;" width="3" height="74"/>
	<g>
		<rect x="706.1" y="63" style="fill:#B5ADA2;" width="38" height="54"/>
		<g>
			<rect x="710.1" y="67" style="fill:#515D7A;" width="30" height="50"/>
			<line style="fill:none;stroke:#FFFFFF;stroke-miterlimit:10;" x1="710.1" y1="92" x2="740.1" y2="92"/>
			<line style="fill:none;stroke:#FFFFFF;stroke-miterlimit:10;" x1="725.6" y1="67" x2="725.6" y2="117"/>
		</g>
	</g>
	<g>
		<rect x="556" y="121" style="fill:#FFFFFF;" width="200" height="7"/>
		<rect x="551.5" y="117" style="fill:#8698BF;" width="209" height="4"/>
		<rect x="551.5" y="121" style="fill:#1A1A63;" width="209" height="2"/>
	</g>
	<rect x="559" y="128" style="opacity:0.8;fill:#FFFFFF;" width="194" height="14"/>
	<g>
		<polygon style="fill:#8698BF;" points="673,155.7 577,155.7 597,135 653,135 		"/>
		<rect x="577" y="155.7" style="fill:#1A1A63;" width="96" height="2.3"/>
	</g>
	<g>
		<rect x="615" y="63" style="fill:#B5ADA2;" width="38" height="54"/>
		<g>
			<rect x="619" y="67" style="fill:#515D7A;" width="30" height="50"/>
			<line style="fill:none;stroke:#FFFFFF;stroke-miterlimit:10;" x1="619" y1="92" x2="649" y2="92"/>
			<line style="fill:none;stroke:#FFFFFF;stroke-miterlimit:10;" x1="634.5" y1="67" x2="634.5" y2="117"/>
		</g>
	</g>
	<polygon style="opacity:0.3;" points="756,73 556,60.7 556,50 756,50 	"/>
	<rect x="556" y="50" style="fill:#FFFFFF;" width="200" height="6"/>
	<rect x="559" y="98" style="opacity:0.5;fill:#FFFFFF;" width="194" height="19"/>
	<rect x="556" y="96" style="fill:#FFFFFF;" width="199" height="2"/>
	<rect x="595" y="191" style="fill:#2B2BA1;" width="60" height="1"/>
	<line style="fill:none;stroke:#2B2BA1;stroke-miterlimit:10;" x1="589" y1="156" x2="597" y2="135"/>
	<line style="fill:none;stroke:#2B2BA1;stroke-miterlimit:10;" x1="660.8" y1="155.6" x2="652.8" y2="134.6"/>
</g>
<g>
	
		<rect x="61.3" y="46" transform="matrix(-1 -4.490065e-11 4.490065e-11 -1 331.5638 96)" style="fill:#85D474;" width="209" height="4"/>
	
		<rect x="65.3" y="50" transform="matrix(-1 -4.490198e-11 4.490198e-11 -1 330.5638 250)" style="fill:#EDE2D3;" width="200" height="150"/>
	
		<rect x="61.3" y="44" transform="matrix(-1 -4.490065e-11 4.490065e-11 -1 331.5638 90)" style="fill:#31631A;" width="209" height="2"/>
	
		<rect x="61.3" y="40" transform="matrix(-1 -4.490065e-11 4.490065e-11 -1 331.5638 84)" style="fill:#85D474;" width="209" height="4"/>
	
		<rect x="61.3" y="38" transform="matrix(-1 -4.490065e-11 4.490065e-11 -1 331.5638 78)" style="fill:#E6FFFA;" width="209" height="2"/>
	
		<rect x="65.3" y="50" transform="matrix(-1 -4.486867e-11 4.486867e-11 -1 133.5638 174)" style="fill:#FFFFFF;" width="3" height="74"/>
	<g>
		<path style="fill:#FFFFFF;" d="M114.3,152.8c0-10.4-40-10.4-40,0V200h40V152.8z"/>
	</g>
	<path style="fill:#639127;" d="M109.3,157.5c0-9.4-30-9.4-30,0V200h30V157.5z"/>
	<polygon style="opacity:0.3;" points="265.3,156 65.3,144.8 65.3,135 265.3,135 	"/>
	
		<rect x="166.3" y="158" transform="matrix(-1 -4.489887e-11 4.489887e-11 -1 392.5638 358)" style="fill:#FAF7F3;" width="60" height="42"/>
	
		<rect x="168.3" y="158.1" transform="matrix(-1 -4.509294e-11 4.509294e-11 -1 345.4787 348.1277)" style="fill:#639127;" width="8.9" height="31.9"/>
	
		<rect x="168.7" y="160.4" transform="matrix(-1 -4.489488e-11 4.489488e-11 -1 345.4496 349.4145)" style="fill:#595E3E;" width="8.1" height="28.6"/>
	<line style="fill:none;stroke:#FFFFFF;stroke-miterlimit:10;" x1="176.8" y1="174.7" x2="168.7" y2="174.7"/>
	<line style="fill:none;stroke:#FFFFFF;stroke-miterlimit:10;" x1="172.6" y1="160.4" x2="172.6" y2="189"/>
	
		<rect x="215.7" y="158.1" transform="matrix(-1 -4.488866e-11 4.488866e-11 -1 440.3936 348.1277)" style="fill:#639127;" width="8.9" height="31.9"/>
	
		<rect x="216.1" y="160.4" transform="matrix(-1 -4.489488e-11 4.489488e-11 -1 440.3644 349.4145)" style="fill:#595E3E;" width="8.1" height="28.6"/>
	<line style="fill:none;stroke:#FFFFFF;stroke-miterlimit:10;" x1="224.3" y1="174.7" x2="216.1" y2="174.7"/>
	<line style="fill:none;stroke:#FFFFFF;stroke-miterlimit:10;" x1="220" y1="160.4" x2="220" y2="189"/>
	
		<rect x="183.5" y="158.1" transform="matrix(-1 -4.491530e-11 4.491530e-11 -1 392.9362 348.1277)" style="fill:#639127;" width="26" height="31.9"/>
	
		<rect x="184.5" y="160.4" transform="matrix(-1 -4.487844e-11 4.487844e-11 -1 392.8511 349.4145)" style="fill:#595E3E;" width="23.8" height="28.6"/>
	<line style="fill:none;stroke:#FFFFFF;stroke-miterlimit:10;" x1="208.3" y1="174.7" x2="184.5" y2="174.7"/>
	<line style="fill:none;stroke:#FFFFFF;stroke-miterlimit:10;" x1="196" y1="160.4" x2="196" y2="189"/>
	<g>
		
			<rect x="262.3" y="50" transform="matrix(-1 -4.486867e-11 4.486867e-11 -1 527.5638 174)" style="fill:#FFFFFF;" width="3" height="74"/>
		
			<rect x="262.3" y="126" transform="matrix(-1 -4.486867e-11 4.486867e-11 -1 527.5638 326)" style="fill:#FFFFFF;" width="3" height="74"/>
	</g>
	
		<rect x="65.3" y="126" transform="matrix(-1 -4.486867e-11 4.486867e-11 -1 133.5638 326)" style="fill:#FFFFFF;" width="3" height="74"/>
	<polygon style="opacity:0.3;" points="244.3,169 148.3,163.1 148.3,158 244.3,158 	"/>
	
		<rect x="241.3" y="158" transform="matrix(-1 -4.486867e-11 4.486867e-11 -1 485.5638 358)" style="fill:#FFFFFF;" width="3" height="42"/>
	
		<rect x="231.3" y="158" transform="matrix(-1 -4.486867e-11 4.486867e-11 -1 465.5638 358)" style="fill:#FFFFFF;" width="3" height="42"/>
	
		<rect x="158.3" y="158" transform="matrix(-1 -4.486867e-11 4.486867e-11 -1 319.5638 358)" style="fill:#FFFFFF;" width="3" height="42"/>
	
		<rect x="148.3" y="123" transform="matrix(-1 -4.486867e-11 4.486867e-11 -1 299.5638 323)" style="fill:#FFFFFF;" width="3" height="77"/>
	
		<rect x="250.3" y="50" transform="matrix(-1 -4.486867e-11 4.486867e-11 -1 503.5638 174)" style="fill:#FFFFFF;" width="3" height="74"/>
	
		<rect x="250.3" y="126" transform="matrix(-1 -4.486867e-11 4.486867e-11 -1 503.5638 326)" style="fill:#FFFFFF;" width="3" height="74"/>
	
		<rect x="159.3" y="50" transform="matrix(-1 -4.486867e-11 4.486867e-11 -1 321.5638 174)" style="fill:#FFFFFF;" width="3" height="74"/>
	
		<rect x="148.3" y="50" transform="matrix(-1 -4.486867e-11 4.486867e-11 -1 299.5638 174)" style="fill:#FFFFFF;" width="3" height="74"/>
	
		<rect x="77.2" y="63" transform="matrix(-1 -4.490065e-11 4.490065e-11 -1 192.3511 180)" style="fill:#B5ADA2;" width="38" height="54"/>
	
		<rect x="81.2" y="67" transform="matrix(-1 -4.492907e-11 4.492907e-11 -1 192.3511 184)" style="fill:#595E3E;" width="30" height="50"/>
	<line style="fill:none;stroke:#FFFFFF;stroke-miterlimit:10;" x1="111.2" y1="92" x2="81.2" y2="92"/>
	<line style="fill:none;stroke:#FFFFFF;stroke-miterlimit:10;" x1="95.7" y1="67" x2="95.7" y2="117"/>
	
		<rect x="65.3" y="121" transform="matrix(-1 -4.490198e-11 4.490198e-11 -1 330.5638 249)" style="fill:#FFFFFF;" width="200" height="7"/>
	
		<rect x="60.8" y="117" transform="matrix(-1 -4.490065e-11 4.490065e-11 -1 330.5638 238)" style="fill:#85D474;" width="209" height="4"/>
	
		<rect x="60.8" y="121" transform="matrix(-1 -4.490065e-11 4.490065e-11 -1 330.5638 244)" style="fill:#31631A;" width="209" height="2"/>
	
		<rect x="68.3" y="128" transform="matrix(-1 -4.490287e-11 4.490287e-11 -1 330.5638 270)" style="opacity:0.8;fill:#FFFFFF;" width="194" height="14"/>
	<polygon style="fill:#85D474;" points="148.3,155.7 244.3,155.7 224.3,135 168.3,135 	"/>
	
		<rect x="148.3" y="155.7" transform="matrix(-1 -4.488733e-11 4.488733e-11 -1 392.5638 313.7)" style="fill:#31631A;" width="96" height="2.3"/>
	
		<rect x="168.3" y="63" transform="matrix(-1 -4.490065e-11 4.490065e-11 -1 374.5638 180)" style="fill:#B5ADA2;" width="38" height="54"/>
	
		<rect x="173" y="66.8" transform="matrix(-1 -4.492907e-11 4.492907e-11 -1 376 183.617)" style="fill:#595E3E;" width="30" height="50"/>
	<line style="fill:none;stroke:#FFFFFF;stroke-miterlimit:10;" x1="202.3" y1="92" x2="172.3" y2="92"/>
	<line style="fill:none;stroke:#FFFFFF;stroke-miterlimit:10;" x1="186.8" y1="67" x2="186.8" y2="117"/>
	<polygon style="opacity:0.3;" points="265.3,73 65.3,60.7 65.3,50 265.3,50 	"/>
	
		<rect x="65.3" y="50" transform="matrix(-1 -4.490198e-11 4.490198e-11 -1 330.5638 106)" style="fill:#FFFFFF;" width="200" height="6"/>
	
		<rect x="68.3" y="98" transform="matrix(-1 -4.490287e-11 4.490287e-11 -1 330.5638 215)" style="opacity:0.5;fill:#FFFFFF;" width="194" height="19"/>
	
		<rect x="66.3" y="96" transform="matrix(-1 -4.489887e-11 4.489887e-11 -1 331.5638 194)" style="fill:#FFFFFF;" width="199" height="2"/>
	
		<rect x="166.3" y="191" transform="matrix(-1 -4.489887e-11 4.489887e-11 -1 392.5638 383)" style="fill:#639127;" width="60" height="1"/>
	<line style="fill:none;stroke:#639127;stroke-miterlimit:10;" x1="232.3" y1="156" x2="224.3" y2="135"/>
	<line style="fill:none;stroke:#639127;stroke-miterlimit:10;" x1="160.5" y1="155.6" x2="168.5" y2="134.6"/>
</g>
<rect x="1401" y="50" style="fill:#EDE2D3;" width="150" height="150"/>
<rect x="1425" y="72" style="opacity:0.5;fill:#FFFFFF;" width="27" height="54"/>
<path style="opacity:0.5;fill:#FFFFFF;" d="M1456,67.5c-7-10.5-28-10.5-35,0V74h35V67.5z"/>
<rect x="1401" y="125" style="opacity:0.5;fill:#FFFFFF;" width="150" height="75"/>
<rect x="1396" y="125" style="fill:#FFFFFF;" width="160" height="8"/>
<rect x="1401" y="133" style="opacity:0.8;fill:#FFFFFF;" width="150" height="10"/>
<rect x="1413" y="150" style="fill:#3B5261;" width="5" height="50"/>
<polygon style="opacity:0.3;" points="1476,139.3 1401,136.5 1401,133 1476,133 "/>
<rect x="1396" y="46" style="fill:#FFFFFF;" width="160" height="4"/>
<rect x="1421" y="67" style="fill:#FFFFFF;" width="35" height="7"/>
<rect x="1428" y="80" style="fill:#84B6D9;" width="21" height="45"/>
<rect x="1404" y="110" style="fill:#FFFFFF;" width="69" height="2"/>
<polygon style="opacity:0.3;" points="1456,78 1421,76.2 1421,74 1456,74 "/>
<polygon style="opacity:0.3;" points="1449,87.1 1428,83.9 1428,80 1449,80 "/>
<rect x="1401" y="50" style="fill:#FFFFFF;" width="6" height="75"/>
<rect x="1470" y="50" style="fill:#FFFFFF;" width="6" height="75"/>
<rect x="1545" y="50" style="fill:#FFFFFF;" width="6" height="150"/>
<polygon style="opacity:0.3;" points="1476,57.3 1401,54.1 1401,50.1 1476,50.1 "/>
<polygon style="opacity:0.3;" points="1551,57.1 1476,53.9 1476,50 1551,50 "/>
<polygon style="opacity:0.3;" points="1551,139.3 1476,136.5 1476,133 1551,133 "/>
<rect x="1476" y="50" style="opacity:0.3;" width="4" height="75"/>
<rect x="1476" y="133" style="opacity:0.3;" width="4" height="67"/>
<rect x="1458" y="150" style="fill:#3B5261;" width="5" height="50"/>
<rect x="1408" y="117" style="opacity:0.6;fill:#FFFFFF;" width="61" height="8"/>
<rect x="1430" y="173" style="fill:#3B5261;" width="17" height="27"/>
<rect x="1430" y="150" style="fill:#C69C6D;" width="17" height="23"/>
<polygon style="opacity:0.3;" points="1469,157.5 1408,151.1 1408,143 1469,143 "/>
<rect x="1404" y="110" style="fill:#FFFFFF;" width="7" height="90"/>
<rect x="1421" y="110" style="fill:#FFFFFF;" width="7" height="90"/>
<rect x="1449" y="110" style="fill:#FFFFFF;" width="7" height="90"/>
<rect x="1466" y="110" style="fill:#FFFFFF;" width="7" height="90"/>
<line style="fill:none;stroke:#FFFFFF;stroke-miterlimit:10;" x1="1428" y1="98" x2="1449" y2="98"/>
<g>
	<rect x="1497" y="71" style="opacity:0.5;fill:#FFFFFF;" width="27" height="54"/>
	<rect x="1500" y="79" style="fill:#84B6D9;" width="21" height="46"/>
	<line style="fill:none;stroke:#FFFFFF;stroke-miterlimit:10;" x1="1499.5" y1="88.5" x2="1521.5" y2="88.5"/>
	<line style="fill:none;stroke:#FFFFFF;stroke-miterlimit:10;" x1="1510.5" y1="88.5" x2="1510.5" y2="125.5"/>
</g>
<g>
	<rect x="1496.8" y="145.8" style="opacity:0.5;fill:#FFFFFF;" width="27" height="54"/>
	<rect x="1499.8" y="153.8" style="fill:#84B6D9;" width="21" height="46"/>
	<line style="fill:none;stroke:#FFFFFF;stroke-miterlimit:10;" x1="1499.3" y1="163.3" x2="1521.3" y2="163.3"/>
	<line style="fill:none;stroke:#FFFFFF;stroke-miterlimit:10;" x1="1510.3" y1="163.3" x2="1510.3" y2="200.3"/>
</g>
<rect x="1497" y="133" style="fill:#FFFFFF;" width="3" height="10"/>
<rect x="1521" y="133" style="fill:#FFFFFF;" width="3" height="10"/>
<rect x="1401" y="37" style="fill:#E6E6E6;" width="150" height="9"/>
<path style="fill:#FFFFFF;" d="M1447,21c-8-8-8-8-17,0v25h17V21z"/>
<rect x="1401" y="30" style="fill:#FFFFFF;" width="6" height="16"/>
<rect x="1470" y="30" style="fill:#FFFFFF;" width="6" height="16"/>
<rect x="1545" y="30" style="fill:#FFFFFF;" width="6" height="16"/>
</svg>
