<?xml version="1.0" encoding="utf-8"?>
<!-- Generator: Adobe Illustrator 23.1.0, SVG Export Plug-In . SVG Version: 6.00 Build 0)  -->
<svg version="1.1" id="Layer_1" xmlns="http://www.w3.org/2000/svg" xmlns:xlink="http://www.w3.org/1999/xlink" x="0px" y="0px"
	 viewBox="0 0 1920 500" style="enable-background:new 0 0 1920 500;" xml:space="preserve">
<rect x="-0.5" y="159" style="fill:#788F55;" width="1920" height="205"/>
<g>
	<defs>
		<rect id="SVGID_1_" width="1920" height="500"/>
	</defs>
	<clipPath id="SVGID_2_">
		<use xlink:href="#SVGID_1_"  style="overflow:visible;"/>
	</clipPath>
	<path style="clip-path:url(#SVGID_2_);fill:#8F8C7E;" d="M-203,249c166-16,441-30,503-34s148,1,233,4s99,12,220,16s247-14,380-9
		s254-9,468-7s344,9,462,25s34,296,34,296H-105L-203,249z"/>
	<path style="clip-path:url(#SVGID_2_);fill:#A2B06D;" d="M-319,297c0,0,256-19,469-25s584-10,804-10s641,1,891,18s375,68,375,68
		l-31,290l-2508,30V297z"/>
</g>
<polygon style="opacity:0.3;" points="298,172 166,172 166,246 265,246 "/>
<polygon style="opacity:0.3;" points="527,172 395,172 395,246 494,246 "/>
<polygon style="opacity:0.3;" points="756,172 624,172 624,246 723,246 "/>
<polygon style="opacity:0.3;" points="1136,172 1004,172 1004,246 1103,246 "/>
<polygon style="opacity:0.3;" points="1365,172 1233,172 1233,246 1332,246 "/>
<polygon style="opacity:0.3;" points="1595,172 1463,172 1463,246 1562,246 "/>
<polygon style="opacity:0.3;" points="1875,172 1743,172 1743,246 1842,246 "/>
<g>
	<rect x="802.6" y="99.1" style="fill:#C7B97F;" width="300" height="146.9"/>
</g>
<rect x="802.6" y="91.1" style="fill:#F2F0D0;" width="300" height="8"/>
<rect x="797.6" y="99.1" style="fill:#A89236;" width="310" height="5"/>
<rect x="927.6" y="104.1" style="fill:#F2F0D0;" width="50" height="141.9"/>
<rect x="800.6" y="174.1" style="fill:#C43030;" width="304" height="20"/>
<ellipse style="fill:#C43030;" cx="953.6" cy="209.1" rx="15" ry="10"/>
<rect x="807.6" y="174.1" style="fill:#FFFFFF;" width="10" height="20"/>
<rect x="827.6" y="174.1" style="fill:#FFFFFF;" width="10" height="20"/>
<rect x="847.6" y="174.1" style="fill:#FFFFFF;" width="10" height="20"/>
<rect x="867.6" y="174.1" style="fill:#FFFFFF;" width="10" height="20"/>
<rect x="887.6" y="174.1" style="fill:#FFFFFF;" width="10" height="20"/>
<rect x="907.6" y="174.1" style="fill:#FFFFFF;" width="10" height="20"/>
<rect x="927.6" y="174.1" style="fill:#FFFFFF;" width="10" height="20"/>
<rect x="947.6" y="174.1" style="fill:#FFFFFF;" width="10" height="20"/>
<rect x="967.6" y="174.1" style="fill:#FFFFFF;" width="10" height="20"/>
<rect x="987.6" y="174.1" style="fill:#FFFFFF;" width="10" height="20"/>
<rect x="1007.6" y="174.1" style="fill:#FFFFFF;" width="10" height="20"/>
<rect x="1027.6" y="174.1" style="fill:#FFFFFF;" width="10" height="20"/>
<rect x="1047.6" y="174.1" style="fill:#FFFFFF;" width="10" height="20"/>
<rect x="1067.6" y="174.1" style="fill:#FFFFFF;" width="10" height="20"/>
<rect x="1087.6" y="174.1" style="fill:#FFFFFF;" width="10" height="20"/>
<g>
	<rect x="932.6" y="104.1" style="fill:#C7B97F;" width="40" height="70"/>
</g>
<g>
	<rect x="937.2" y="134.1" style="fill:#F2F0D0;" width="30" height="40"/>
	<ellipse style="fill:#F2F0D0;" cx="952.2" cy="134.1" rx="15" ry="10"/>
	<g>
		<rect x="942.2" y="138.1" style="fill:#42210B;" width="20" height="36"/>
		<ellipse style="fill:#42210B;" cx="952.2" cy="138.1" rx="10" ry="9"/>
		<line style="fill:none;stroke:#F0EDBE;stroke-miterlimit:10;" x1="942.2" y1="138.1" x2="962.2" y2="138.1"/>
		<line style="fill:none;stroke:#F0EDBE;stroke-miterlimit:10;" x1="952.2" y1="138.6" x2="952.2" y2="174.1"/>
	</g>
</g>
<g>
	<rect x="849.6" y="134.1" style="fill:#F2F0D0;" width="30" height="40"/>
	<ellipse style="fill:#F2F0D0;" cx="864.6" cy="134.1" rx="15" ry="10"/>
	<g>
		<rect x="854.6" y="138.1" style="fill:#42210B;" width="20" height="36"/>
		<ellipse style="fill:#42210B;" cx="864.6" cy="138.1" rx="10" ry="9"/>
		<line style="fill:none;stroke:#F0EDBE;stroke-miterlimit:10;" x1="854.6" y1="138.1" x2="874.6" y2="138.1"/>
		<line style="fill:none;stroke:#F0EDBE;stroke-miterlimit:10;" x1="864.6" y1="138.6" x2="864.6" y2="174.1"/>
	</g>
</g>
<g>
	<rect x="1025.6" y="134.1" style="fill:#F2F0D0;" width="30" height="40"/>
	<ellipse style="fill:#F2F0D0;" cx="1040.6" cy="134.1" rx="15" ry="10"/>
	<g>
		<rect x="1030.6" y="138.1" style="fill:#42210B;" width="20" height="36"/>
		<ellipse style="fill:#42210B;" cx="1040.6" cy="138.1" rx="10" ry="9"/>
		<line style="fill:none;stroke:#F0EDBE;stroke-miterlimit:10;" x1="1030.6" y1="138.1" x2="1050.6" y2="138.1"/>
		<line style="fill:none;stroke:#F0EDBE;stroke-miterlimit:10;" x1="1040.6" y1="138.6" x2="1040.6" y2="174.1"/>
	</g>
</g>
<rect x="802.6" y="112.1" style="fill:#F2F0D0;" width="300" height="8"/>
<polygon style="opacity:0.3;" points="1102.6,118.1 802.6,110.5 802.6,104.1 1102.6,104.1 "/>
<g>
	<rect x="809.6" y="129.1" style="fill:#F2F0D0;" width="30" height="45"/>
	<rect x="814.6" y="133.6" style="fill:#42210B;" width="20" height="40.5"/>
	<line style="fill:none;stroke:#F0EDBE;stroke-miterlimit:10;" x1="824.6" y1="133.1" x2="824.6" y2="174.1"/>
	<line style="fill:none;stroke:#F0EDBE;stroke-miterlimit:10;" x1="814.6" y1="153.6" x2="834.6" y2="153.6"/>
</g>
<g>
	<rect x="889.6" y="129.1" style="fill:#F2F0D0;" width="30" height="45"/>
	<rect x="894.6" y="133.6" style="fill:#42210B;" width="20" height="40.5"/>
	<line style="fill:none;stroke:#F0EDBE;stroke-miterlimit:10;" x1="904.6" y1="133.1" x2="904.6" y2="174.1"/>
	<line style="fill:none;stroke:#F0EDBE;stroke-miterlimit:10;" x1="894.6" y1="153.6" x2="914.6" y2="153.6"/>
</g>
<g>
	<rect x="985.7" y="129.1" style="fill:#F2F0D0;" width="30" height="45"/>
	<rect x="990.7" y="133.6" style="fill:#42210B;" width="20" height="40.5"/>
	<line style="fill:none;stroke:#F0EDBE;stroke-miterlimit:10;" x1="1000.7" y1="133.1" x2="1000.7" y2="174.1"/>
	<line style="fill:none;stroke:#F0EDBE;stroke-miterlimit:10;" x1="990.7" y1="153.6" x2="1010.7" y2="153.6"/>
</g>
<g>
	<rect x="1065.6" y="129.1" style="fill:#F2F0D0;" width="30" height="45"/>
	<rect x="1070.6" y="133.6" style="fill:#42210B;" width="20" height="40.5"/>
	<line style="fill:none;stroke:#F0EDBE;stroke-miterlimit:10;" x1="1080.6" y1="133.1" x2="1080.6" y2="174.1"/>
	<line style="fill:none;stroke:#F0EDBE;stroke-miterlimit:10;" x1="1070.6" y1="153.6" x2="1090.6" y2="153.6"/>
</g>
<polygon style="opacity:0.3;" points="1102.6,127.1 802.6,123.3 802.6,120.1 1102.6,120.1 "/>
<g>
	<rect x="889.2" y="209.2" style="fill:#F2F0D0;" width="30" height="40"/>
	<ellipse style="fill:#F2F0D0;" cx="904.2" cy="209.2" rx="15" ry="10"/>
	<g>
		<rect x="894.2" y="213.2" style="fill:#42210B;" width="20" height="36"/>
		<ellipse style="fill:#42210B;" cx="904.2" cy="213.2" rx="10" ry="9"/>
		<line style="fill:none;stroke:#F0EDBE;stroke-miterlimit:10;" x1="894.2" y1="213.2" x2="914.2" y2="213.2"/>
		<line style="fill:none;stroke:#F0EDBE;stroke-miterlimit:10;" x1="904.2" y1="213.7" x2="904.2" y2="249.2"/>
	</g>
</g>
<g>
	<rect x="809.2" y="209.2" style="fill:#F2F0D0;" width="30" height="40"/>
	<ellipse style="fill:#F2F0D0;" cx="824.2" cy="209.2" rx="15" ry="10"/>
	<g>
		<rect x="814.2" y="213.2" style="fill:#42210B;" width="20" height="36"/>
		<ellipse style="fill:#42210B;" cx="824.2" cy="213.2" rx="10" ry="9"/>
		<line style="fill:none;stroke:#F0EDBE;stroke-miterlimit:10;" x1="814.2" y1="213.2" x2="834.2" y2="213.2"/>
		<line style="fill:none;stroke:#F0EDBE;stroke-miterlimit:10;" x1="824.2" y1="213.7" x2="824.2" y2="249.2"/>
	</g>
</g>
<g>
	<rect x="986.2" y="209.2" style="fill:#F0EDBE;" width="30" height="40"/>
	<ellipse style="fill:#F0EDBE;" cx="1001.2" cy="209.2" rx="15" ry="10"/>
	<g>
		<rect x="991.2" y="213.2" style="fill:#42210B;" width="20" height="36"/>
		<ellipse style="fill:#42210B;" cx="1001.2" cy="213.2" rx="10" ry="9"/>
		<line style="fill:none;stroke:#F0EDBE;stroke-miterlimit:10;" x1="991.2" y1="213.2" x2="1011.2" y2="213.2"/>
		<line style="fill:none;stroke:#F0EDBE;stroke-miterlimit:10;" x1="1001.2" y1="213.7" x2="1001.2" y2="249.2"/>
	</g>
</g>
<g>
	<rect x="1065.2" y="209.2" style="fill:#F2F0D0;" width="30" height="40"/>
	<ellipse style="fill:#F2F0D0;" cx="1080.2" cy="209.2" rx="15" ry="10"/>
	<g>
		<rect x="1070.2" y="213.2" style="fill:#42210B;" width="20" height="36"/>
		<ellipse style="fill:#42210B;" cx="1080.2" cy="213.2" rx="10" ry="9"/>
		<line style="fill:none;stroke:#F0EDBE;stroke-miterlimit:10;" x1="1070.2" y1="213.2" x2="1090.2" y2="213.2"/>
		<line style="fill:none;stroke:#F0EDBE;stroke-miterlimit:10;" x1="1080.2" y1="213.7" x2="1080.2" y2="249.2"/>
	</g>
</g>
<rect x="802.6" y="239.1" style="fill:#F2F0D0;" width="50.8" height="10"/>
<rect x="873.6" y="239.1" style="fill:#F2F0D0;" width="65.2" height="10"/>
<rect x="968.6" y="239.1" style="fill:#F2F0D0;" width="62.4" height="10"/>
<rect x="1051.2" y="240.1" style="fill:#F2F0D0;" width="51.7" height="10"/>
<rect x="938.6" y="209.1" style="fill:#C43030;" width="30" height="36.9"/>
<g>
	<rect x="848.6" y="208.5" style="fill:#F2F0D0;" width="30" height="37.5"/>
	<ellipse style="fill:#F2F0D0;" cx="863.6" cy="208.5" rx="15" ry="9.4"/>
	<g>
		<rect x="853.6" y="212.3" style="fill:#42210B;" width="20" height="33.7"/>
		<ellipse style="fill:#42210B;" cx="863.6" cy="212.3" rx="10" ry="8.4"/>
		<line style="fill:none;stroke:#F0EDBE;stroke-miterlimit:10;" x1="853.6" y1="212.3" x2="873.6" y2="212.3"/>
		<line style="fill:none;stroke:#F0EDBE;stroke-miterlimit:10;" x1="863.6" y1="212.7" x2="863.6" y2="246"/>
	</g>
</g>
<g>
	<rect x="1025.6" y="208.5" style="fill:#F2F0D0;" width="30" height="37.5"/>
	<ellipse style="fill:#F2F0D0;" cx="1040.6" cy="208.5" rx="15" ry="9.4"/>
	<g>
		<rect x="1031.1" y="212.3" style="fill:#42210B;" width="20" height="33.7"/>
		<ellipse style="fill:#42210B;" cx="1041.1" cy="212.3" rx="10" ry="8.4"/>
		<line style="fill:none;stroke:#F0EDBE;stroke-miterlimit:10;" x1="1031.1" y1="212.3" x2="1051.1" y2="212.3"/>
		<line style="fill:none;stroke:#F0EDBE;stroke-miterlimit:10;" x1="1041.1" y1="212.7" x2="1041.1" y2="246"/>
	</g>
</g>
<polygon style="opacity:0.3;" points="1102.6,209.1 802.6,200.9 802.6,194.1 1102.6,194.1 "/>
<rect x="839" y="73.1" style="fill:#F2F0D0;" width="50" height="10"/>
<path style="fill:#F2F0D0;" d="M889,63.1c-16.8-4.5-33.5-4.6-50,0l-5,10h60L889,63.1z"/>
<rect x="800.6" y="174.1" style="fill:#C43030;" width="304" height="3"/>
<rect x="834.1" y="80.1" style="fill:#DEC768;" width="60" height="3"/>
<rect x="802.6" y="88.1" style="fill:#DEC768;" width="300" height="3"/>
<rect x="834.1" y="83.1" style="fill:#F2F0D0;" width="60" height="8"/>
<rect x="1008.4" y="83.1" style="fill:#F2F0D0;" width="60" height="8"/>
<rect x="1013.4" y="73.6" style="fill:#F2F0D0;" width="50" height="10"/>
<path style="fill:#F2F0D0;" d="M1063.4,63.6c-16.8-4.5-33.5-4.6-50,0l-5,10h60L1063.4,63.6z"/>
<rect x="1008.4" y="80.6" style="fill:#DEC768;" width="60" height="3"/>
<g>
	<rect x="1181.1" y="99.2" style="fill:#A9D9C1;" width="150" height="146.8"/>
	<path style="opacity:0.3;" d="M1324.1,177.2v-65h-133v65h8v-38c0-5.5,6.7-10,15-10s15,4.5,15,10v38h15v-38c0-5.5,6.7-10,15-10
		s15,4.5,15,10v38h15v-38c0-5.5,6.7-10,15-10s15,4.5,15,10v38H1324.1z"/>
	<path style="fill:#83C4A4;" d="M1188.1,110.2v67h8v-40c0-5.5,6.7-10,15-10s15,4.5,15,10v40h15v-40c0-5.5,6.7-10,15-10s15,4.5,15,10
		v40h15v-40c0-5.5,6.7-10,15-10s15,4.5,15,10v40h8v-67H1188.1z"/>
	<g>
		<rect x="1241.1" y="208.5" style="fill:#FFFFFF;" width="30" height="37.5"/>
		<ellipse style="fill:#FFFFFF;" cx="1256.1" cy="208.5" rx="15" ry="9.4"/>
		<g>
			<rect x="1246.1" y="212.3" style="fill:#42210B;" width="20" height="33.7"/>
			<ellipse style="fill:#42210B;" cx="1256.1" cy="212.3" rx="10" ry="8.4"/>
			<line style="fill:none;stroke:#FFFFFF;stroke-miterlimit:10;" x1="1246.1" y1="212.3" x2="1266.1" y2="212.3"/>
			<line style="fill:none;stroke:#FFFFFF;stroke-miterlimit:10;" x1="1256.1" y1="212.7" x2="1256.1" y2="246"/>
		</g>
	</g>
	<rect x="1181.1" y="99.2" style="fill:#FFFFFF;" width="7" height="150"/>
	<rect x="1324.1" y="99.2" style="fill:#FFFFFF;" width="7" height="150"/>
	<rect x="1181.1" y="177.2" style="opacity:0.8;fill:#518069;" width="150" height="5"/>
	<line style="fill:none;stroke:#FFFFFF;stroke-miterlimit:10;" x1="1181.1" y1="180.2" x2="1332.1" y2="180.2"/>
	<g>
		<rect x="1188.1" y="99.2" style="opacity:0.8;fill:#518069;" width="136.1" height="5"/>
		<line style="fill:none;stroke:#FFFFFF;stroke-miterlimit:10;" x1="1188.1" y1="102.2" x2="1325.1" y2="102.2"/>
	</g>
	<path style="opacity:0.3;" d="M1324.1,246v-61.8h-133V246h8v-36.2c0-5.3,6.7-9.5,15-9.5s15,4.3,15,9.5V246h15v-36.2
		c0-5.3,6.7-9.5,15-9.5s15,4.3,15,9.5V246h15v-36.2c0-5.3,6.7-9.5,15-9.5s15,4.3,15,9.5V246H1324.1z"/>
	<g>
		<rect x="1291.1" y="212.5" style="fill:#42210B;" width="20" height="33.5"/>
		<ellipse style="fill:#42210B;" cx="1301.1" cy="212.5" rx="10" ry="8.4"/>
		<line style="fill:none;stroke:#FFFFFF;stroke-miterlimit:10;" x1="1291.1" y1="212.5" x2="1311.1" y2="212.5"/>
		<line style="fill:none;stroke:#FFFFFF;stroke-miterlimit:10;" x1="1301.1" y1="213" x2="1301.1" y2="246"/>
	</g>
	<path style="fill:#83C4A4;" d="M1188.1,182.2V246h8v-38.1c0-5.3,6.7-9.5,15-9.5s15,4.3,15,9.5V246h15v-38.1c0-5.3,6.7-9.5,15-9.5
		s15,4.3,15,9.5V246h15v-38.1c0-5.3,6.7-9.5,15-9.5s15,4.3,15,9.5V246h8v-63.8H1188.1z"/>
	<polygon style="opacity:0.3;" points="1324.1,203.2 1188.1,193.8 1188.1,182.2 1324.1,182.2 	"/>
	<polygon style="opacity:0.3;" points="1324.1,125.2 1188.1,115.8 1188.1,104.2 1324.1,104.2 	"/>
	<path style="opacity:0.7;fill:#FFFFFF;" d="M1188.1,182.2v67h2.7v-48h0c0.4-7.2,9.4-13,20.4-13s20,5.8,20.4,13h0v48h4.1v-48h0
		c0.4-7.2,9.4-13,20.4-13s20,5.8,20.4,13h0v48h4.1v-48h0c0.4-7.2,9.4-13,20.4-13s20,5.8,20.4,13h0v48h2.7v-67H1188.1z"/>
	<g>
		<rect x="1201.1" y="212.5" style="fill:#42210B;" width="20" height="33.5"/>
		<ellipse style="fill:#42210B;" cx="1211.1" cy="212.5" rx="10" ry="8.4"/>
		<line style="fill:none;stroke:#FFFFFF;stroke-miterlimit:10;" x1="1201.1" y1="212.5" x2="1221.1" y2="212.5"/>
		<line style="fill:none;stroke:#FFFFFF;stroke-miterlimit:10;" x1="1211.1" y1="213" x2="1211.1" y2="246"/>
	</g>
	<g>
		<rect x="1246.1" y="141.2" style="fill:#42210B;" width="20" height="36"/>
		<line style="fill:none;stroke:#FFFFFF;stroke-miterlimit:10;" x1="1256.1" y1="141.2" x2="1256.1" y2="177.2"/>
	</g>
	<g>
		<rect x="1291.1" y="140.9" style="fill:#42210B;" width="20" height="36"/>
		<line style="fill:none;stroke:#FFFFFF;stroke-miterlimit:10;" x1="1301.1" y1="140.9" x2="1301.1" y2="176.9"/>
	</g>
	<g>
		<rect x="1201.1" y="140.9" style="fill:#42210B;" width="20" height="36"/>
		<line style="fill:none;stroke:#FFFFFF;stroke-miterlimit:10;" x1="1211.1" y1="140.9" x2="1211.1" y2="176.9"/>
	</g>
	<rect x="1181.1" y="157.2" style="opacity:0.5;fill:#FFFFFF;" width="150" height="20"/>
	<path style="fill:none;stroke:#FFFFFF;stroke-miterlimit:10;" d="M1257.1,174.7"/>
	<rect x="1188.1" y="157.2" style="fill:#FFFFFF;" width="136" height="2"/>
	<rect x="1188.1" y="104.2" style="fill:#FFFFFF;" width="136" height="6"/>
	<path style="opacity:0.7;fill:#FFFFFF;" d="M1188.3,110.2v67h2.7v-48h0c0.4-7.2,9.3-13,20.3-13s19.9,5.8,20.3,13h0v48h4.1v-48h0
		c0.4-7.2,9.3-13,20.3-13s19.9,5.8,20.3,13h0v48h4.1v-48h0c0.4-7.2,9.3-13,20.3-13c11,0,19.9,5.8,20.3,13h0v48h2.7v-67H1188.3z"/>
	<rect x="1188.1" y="110.2" style="opacity:0.5;fill:#FFFFFF;" width="136" height="3"/>
	<rect x="1181.1" y="84.2" style="fill:#FFFFFF;" width="150" height="15"/>
	<rect x="1178.1" y="94.2" style="fill:#83C4A4;" width="156" height="5"/>
	<rect x="1178.1" y="82.2" style="fill:#83C4A4;" width="156" height="2"/>
	<g>
		<rect x="1221.1" y="64.2" style="fill:#FFFFFF;" width="70" height="20"/>
		<rect x="1221.1" y="62.2" style="fill:#83C4A4;" width="70" height="2"/>
	</g>
	<ellipse style="fill:#83C4A4;" cx="1255.6" cy="77.7" rx="16.5" ry="6.5"/>
</g>
<g>
	<rect x="343.7" y="99.2" style="fill:#F2D0DC;" width="150" height="146.8"/>
	<path style="opacity:0.3;" d="M486.7,177.2v-65h-133v65h8v-38c0-5.5,6.7-10,15-10s15,4.5,15,10v38h15v-38c0-5.5,6.7-10,15-10
		s15,4.5,15,10v38h15v-38c0-5.5,6.7-10,15-10s15,4.5,15,10v38H486.7z"/>
	<path style="fill:#E66A95;" d="M350.7,110.2v67h8v-40c0-5.5,6.7-10,15-10s15,4.5,15,10v40h15v-40c0-5.5,6.7-10,15-10s15,4.5,15,10
		v40h15v-40c0-5.5,6.7-10,15-10s15,4.5,15,10v40h8v-67H350.7z"/>
	<g>
		<rect x="403.8" y="208.5" style="fill:#FFFFFF;" width="30" height="37.5"/>
		<ellipse style="fill:#FFFFFF;" cx="418.8" cy="208.5" rx="15" ry="9.4"/>
		<g>
			<rect x="408.8" y="212.3" style="fill:#42210B;" width="20" height="33.7"/>
			<ellipse style="fill:#42210B;" cx="418.8" cy="212.3" rx="10" ry="8.4"/>
			<line style="fill:none;stroke:#FFFFFF;stroke-miterlimit:10;" x1="408.8" y1="212.3" x2="428.8" y2="212.3"/>
			<line style="fill:none;stroke:#FFFFFF;stroke-miterlimit:10;" x1="418.8" y1="212.7" x2="418.8" y2="246"/>
		</g>
	</g>
	<rect x="343.7" y="99.2" style="fill:#FFFFFF;" width="7" height="150"/>
	<rect x="486.7" y="99.2" style="fill:#FFFFFF;" width="7" height="150"/>
	<rect x="343.7" y="177.2" style="opacity:0.8;fill:#A38453;" width="150" height="5"/>
	<line style="fill:none;stroke:#FFFFFF;stroke-miterlimit:10;" x1="343.7" y1="180.2" x2="494.7" y2="180.2"/>
	<g>
		<rect x="350.7" y="99.2" style="opacity:0.8;fill:#A38453;" width="136.1" height="5"/>
		<line style="fill:none;stroke:#FFFFFF;stroke-miterlimit:10;" x1="350.7" y1="102.2" x2="487.7" y2="102.2"/>
	</g>
	<path style="opacity:0.3;" d="M486.7,246v-61.8h-133V246h8v-36.2c0-5.3,6.7-9.5,15-9.5s15,4.3,15,9.5V246h15v-36.2
		c0-5.3,6.7-9.5,15-9.5s15,4.3,15,9.5V246h15v-36.2c0-5.3,6.7-9.5,15-9.5s15,4.3,15,9.5V246H486.7z"/>
	<g>
		<rect x="453.7" y="212.5" style="fill:#42210B;" width="20" height="33.5"/>
		<ellipse style="fill:#42210B;" cx="463.7" cy="212.5" rx="10" ry="8.4"/>
		<line style="fill:none;stroke:#FFFFFF;stroke-miterlimit:10;" x1="453.7" y1="212.5" x2="473.7" y2="212.5"/>
		<line style="fill:none;stroke:#FFFFFF;stroke-miterlimit:10;" x1="463.7" y1="213" x2="463.7" y2="246"/>
	</g>
	<path style="fill:#E66A95;" d="M350.7,182.2V246h8v-38.1c0-5.3,6.7-9.5,15-9.5s15,4.3,15,9.5V246h15v-38.1c0-5.3,6.7-9.5,15-9.5
		s15,4.3,15,9.5V246h15v-38.1c0-5.3,6.7-9.5,15-9.5s15,4.3,15,9.5V246h8v-63.8H350.7z"/>
	<polygon style="opacity:0.3;" points="486.7,203.2 350.7,193.8 350.7,182.2 486.7,182.2 	"/>
	<polygon style="opacity:0.3;" points="486.7,125.2 350.7,115.8 350.7,104.2 486.7,104.2 	"/>
	<path style="opacity:0.7;fill:#FFFFFF;" d="M350.7,182.2v67h2.7v-48h0c0.4-7.2,9.4-13,20.4-13c11,0,20,5.8,20.4,13h0v48h4.1v-48h0
		c0.4-7.2,9.4-13,20.4-13c11,0,20,5.8,20.4,13h0v48h4.1v-48h0c0.4-7.2,9.4-13,20.4-13s20,5.8,20.4,13h0v48h2.7v-67H350.7z"/>
	<g>
		<rect x="363.7" y="212.5" style="fill:#42210B;" width="20" height="33.5"/>
		<ellipse style="fill:#42210B;" cx="373.7" cy="212.5" rx="10" ry="8.4"/>
		<line style="fill:none;stroke:#FFFFFF;stroke-miterlimit:10;" x1="363.7" y1="212.5" x2="383.7" y2="212.5"/>
		<line style="fill:none;stroke:#FFFFFF;stroke-miterlimit:10;" x1="373.7" y1="213" x2="373.7" y2="246"/>
	</g>
	<g>
		<rect x="408.7" y="141.2" style="fill:#42210B;" width="20" height="36"/>
		<line style="fill:none;stroke:#FFFFFF;stroke-miterlimit:10;" x1="418.7" y1="141.2" x2="418.7" y2="177.2"/>
	</g>
	<g>
		<rect x="453.7" y="140.9" style="fill:#42210B;" width="20" height="36"/>
		<line style="fill:none;stroke:#FFFFFF;stroke-miterlimit:10;" x1="463.7" y1="140.9" x2="463.7" y2="176.9"/>
	</g>
	<g>
		<rect x="363.7" y="140.9" style="fill:#42210B;" width="20" height="36"/>
		<line style="fill:none;stroke:#FFFFFF;stroke-miterlimit:10;" x1="373.7" y1="140.9" x2="373.7" y2="176.9"/>
	</g>
	<rect x="343.7" y="157.2" style="opacity:0.5;fill:#FFFFFF;" width="150" height="20"/>
	<path style="fill:none;stroke:#FFFFFF;stroke-miterlimit:10;" d="M419.7,174.7"/>
	<rect x="350.7" y="157.2" style="fill:#FFFFFF;" width="136" height="2"/>
	<rect x="350.7" y="104.2" style="fill:#FFFFFF;" width="136" height="6"/>
	<path style="opacity:0.7;fill:#FFFFFF;" d="M350.9,110.2v67h2.7v-48h0c0.4-7.2,9.3-13,20.3-13c11,0,19.9,5.8,20.3,13h0v48h4.1v-48
		h0c0.4-7.2,9.3-13,20.3-13s19.9,5.8,20.3,13h0v48h4.1v-48h0c0.4-7.2,9.3-13,20.3-13c11,0,19.9,5.8,20.3,13h0v48h2.7v-67H350.9z"/>
	<rect x="350.7" y="110.2" style="opacity:0.5;fill:#FFFFFF;" width="136" height="3"/>
	<rect x="343.7" y="84.2" style="fill:#FFFFFF;" width="150" height="15"/>
	<rect x="340.7" y="94.2" style="fill:#E66A95;" width="156" height="5"/>
	<rect x="340.7" y="82.2" style="fill:#E66A95;" width="156" height="2"/>
	<g>
		<rect x="383.7" y="64.2" style="fill:#FFFFFF;" width="70" height="20"/>
		<rect x="383.7" y="62.2" style="fill:#E66A95;" width="70" height="2"/>
	</g>
	<ellipse style="fill:#E66A95;" cx="418.2" cy="77.7" rx="16.5" ry="6.5"/>
</g>
<g>
	<rect x="1635" y="95.2" style="fill:#8698BF;" width="209" height="4"/>
	<rect x="1640" y="99.2" style="fill:#EDE2D3;" width="200" height="146.8"/>
	<rect x="1635" y="93.2" style="fill:#1A1A63;" width="209" height="2"/>
	<rect x="1635" y="89.2" style="fill:#8698BF;" width="209" height="4"/>
	<rect x="1635" y="87.2" style="fill:#E6E6FF;" width="209" height="2"/>
	<g>
		<path style="fill:#FFFFFF;" d="M1791,201.5c0-9.8,40-9.8,40,0V246h-40V201.5z"/>
	</g>
	<path style="fill:#3F3FA1;" d="M1796,206.3c0-8.8,30-8.8,30,0V246h-30V206.3z"/>
	<polygon style="opacity:0.3;" points="1840,205.2 1640,194 1640,184.2 1840,184.2 	"/>
	<rect x="1679" y="207.2" style="fill:#FAF7F3;" width="60" height="42"/>
	<g>
		<rect x="1728.1" y="207.3" style="fill:#2B2BA1;" width="8.9" height="31.9"/>
		<g>
			<rect x="1728.5" y="209.6" style="fill:#515D7A;" width="8.1" height="28.6"/>
			<line style="fill:none;stroke:#FFFFFF;stroke-miterlimit:10;" x1="1728.5" y1="223.9" x2="1736.6" y2="223.9"/>
			<line style="fill:none;stroke:#FFFFFF;stroke-miterlimit:10;" x1="1732.7" y1="209.6" x2="1732.7" y2="238.2"/>
		</g>
	</g>
	<g>
		<rect x="1680.6" y="207.3" style="fill:#2B2BA1;" width="8.9" height="31.9"/>
		<g>
			<rect x="1681" y="209.6" style="fill:#515D7A;" width="8.1" height="28.6"/>
			<line style="fill:none;stroke:#FFFFFF;stroke-miterlimit:10;" x1="1681" y1="223.9" x2="1689.2" y2="223.9"/>
			<line style="fill:none;stroke:#FFFFFF;stroke-miterlimit:10;" x1="1685.2" y1="209.6" x2="1685.2" y2="238.2"/>
		</g>
	</g>
	<g>
		<rect x="1695.8" y="207.3" style="fill:#2B2BA1;" width="26" height="31.9"/>
		<g>
			<rect x="1697" y="209.6" style="fill:#515D7A;" width="23.8" height="28.6"/>
			<line style="fill:none;stroke:#FFFFFF;stroke-miterlimit:10;" x1="1697" y1="223.9" x2="1720.7" y2="223.9"/>
			<line style="fill:none;stroke:#FFFFFF;stroke-miterlimit:10;" x1="1709.3" y1="209.6" x2="1709.3" y2="238.2"/>
		</g>
	</g>
	<rect x="1837" y="175.2" style="fill:#FFFFFF;" width="3" height="74"/>
	<polygon style="opacity:0.3;" points="1757,218.2 1661,212.3 1661,207.2 1757,207.2 	"/>
	<rect x="1661" y="207.2" style="fill:#FFFFFF;" width="3" height="42"/>
	<rect x="1671" y="207.2" style="fill:#FFFFFF;" width="3" height="42"/>
	<rect x="1744" y="207.2" style="fill:#FFFFFF;" width="3" height="42"/>
	<rect x="1754" y="172.2" style="fill:#FFFFFF;" width="3" height="77"/>
	<rect x="1652" y="175.2" style="fill:#FFFFFF;" width="3" height="74"/>
	<g>
		<rect x="1790.1" y="112.2" style="fill:#B5ADA2;" width="38" height="54"/>
		<g>
			<rect x="1794.1" y="116.2" style="fill:#515D7A;" width="30" height="50"/>
			<line style="fill:none;stroke:#FFFFFF;stroke-miterlimit:10;" x1="1794.1" y1="141.2" x2="1824.1" y2="141.2"/>
			<line style="fill:none;stroke:#FFFFFF;stroke-miterlimit:10;" x1="1809.6" y1="116.2" x2="1809.6" y2="166.2"/>
		</g>
	</g>
	<rect x="1643" y="177.2" style="opacity:0.8;fill:#FFFFFF;" width="194" height="14"/>
	<g>
		<polygon style="fill:#8698BF;" points="1757,204.9 1661,204.9 1681,184.2 1737,184.2 		"/>
		<rect x="1661" y="204.9" style="fill:#1A1A63;" width="96" height="2.3"/>
	</g>
	<g>
		<rect x="1699" y="112.2" style="fill:#B5ADA2;" width="38" height="54"/>
		<g>
			<rect x="1703" y="116.2" style="fill:#515D7A;" width="30" height="50"/>
			<line style="fill:none;stroke:#FFFFFF;stroke-miterlimit:10;" x1="1703" y1="141.2" x2="1733" y2="141.2"/>
			<line style="fill:none;stroke:#FFFFFF;stroke-miterlimit:10;" x1="1718.5" y1="116.2" x2="1718.5" y2="166.2"/>
		</g>
	</g>
	<polygon style="opacity:0.3;" points="1840,122.2 1640,109.9 1640,99.2 1840,99.2 	"/>
	<rect x="1640" y="99.2" style="fill:#FFFFFF;" width="200" height="6"/>
	<rect x="1643" y="147.2" style="opacity:0.5;fill:#FFFFFF;" width="194" height="19"/>
	<rect x="1640" y="145.2" style="fill:#FFFFFF;" width="199" height="2"/>
	<rect x="1679" y="240.2" style="fill:#2B2BA1;" width="60" height="1"/>
	<line style="fill:none;stroke:#2B2BA1;stroke-miterlimit:10;" x1="1673" y1="205.2" x2="1681" y2="184.2"/>
	<line style="fill:none;stroke:#2B2BA1;stroke-miterlimit:10;" x1="1744.8" y1="204.8" x2="1736.8" y2="183.8"/>
	<rect x="1837" y="99.2" style="fill:#FFFFFF;" width="3" height="74"/>
	<g>
		<rect x="1640" y="99.2" style="fill:#FFFFFF;" width="3" height="74"/>
		<rect x="1640" y="175.2" style="fill:#FFFFFF;" width="3" height="74"/>
	</g>
	<rect x="1652" y="99.2" style="fill:#FFFFFF;" width="3" height="74"/>
	<rect x="1743" y="99.2" style="fill:#FFFFFF;" width="3" height="74"/>
	<rect x="1754" y="99.2" style="fill:#FFFFFF;" width="3" height="74"/>
	<g>
		<rect x="1640" y="170.2" style="fill:#FFFFFF;" width="200" height="7"/>
		<rect x="1635.5" y="166.2" style="fill:#8698BF;" width="209" height="4"/>
		<rect x="1635.5" y="170.2" style="fill:#1A1A63;" width="209" height="2"/>
	</g>
</g>
<g>
	
		<rect x="61.3" y="95.2" transform="matrix(-1 -4.490065e-11 4.490065e-11 -1 331.5638 194.3138)" style="fill:#85D474;" width="209" height="4"/>
	
		<rect x="65.3" y="99.2" transform="matrix(-1 -4.395607e-11 4.395607e-11 -1 330.5638 345.1569)" style="fill:#EDE2D3;" width="200" height="146.8"/>
	
		<rect x="61.3" y="93.2" transform="matrix(-1 -4.490065e-11 4.490065e-11 -1 331.5638 188.3138)" style="fill:#31631A;" width="209" height="2"/>
	
		<rect x="61.3" y="89.2" transform="matrix(-1 -4.490065e-11 4.490065e-11 -1 331.5638 182.3138)" style="fill:#85D474;" width="209" height="4"/>
	
		<rect x="61.3" y="87.2" transform="matrix(-1 -4.490065e-11 4.490065e-11 -1 331.5638 176.3138)" style="fill:#E6FFFA;" width="209" height="2"/>
	<g>
		<path style="fill:#FFFFFF;" d="M114.3,201.5c0-9.8-40-9.8-40,0V246h40V201.5z"/>
	</g>
	<path style="fill:#639127;" d="M109.3,206.3c0-8.8-30-8.8-30,0V246h30V206.3z"/>
	<polygon style="opacity:0.3;" points="265.3,205.2 65.3,194 65.3,184.2 265.3,184.2 	"/>
	
		<rect x="166.3" y="207.2" transform="matrix(-1 -4.483803e-11 4.483803e-11 -1 392.5638 456.3138)" style="fill:#FAF7F3;" width="60" height="42"/>
	
		<rect x="168.3" y="207.3" transform="matrix(-1 -4.488866e-11 4.488866e-11 -1 345.4787 446.4415)" style="fill:#639127;" width="8.9" height="31.9"/>
	
		<rect x="168.7" y="209.6" transform="matrix(-1 -4.556501e-11 4.556501e-11 -1 345.4496 447.7283)" style="fill:#595E3E;" width="8.1" height="28.6"/>
	<line style="fill:none;stroke:#FFFFFF;stroke-miterlimit:10;" x1="176.8" y1="223.9" x2="168.7" y2="223.9"/>
	<line style="fill:none;stroke:#FFFFFF;stroke-miterlimit:10;" x1="172.6" y1="209.6" x2="172.6" y2="238.2"/>
	
		<rect x="215.7" y="207.3" transform="matrix(-1 -4.488866e-11 4.488866e-11 -1 440.3936 446.4415)" style="fill:#639127;" width="8.9" height="31.9"/>
	
		<rect x="216.1" y="209.6" transform="matrix(-1 -4.556501e-11 4.556501e-11 -1 440.3644 447.7283)" style="fill:#595E3E;" width="8.1" height="28.6"/>
	<line style="fill:none;stroke:#FFFFFF;stroke-miterlimit:10;" x1="224.3" y1="223.9" x2="216.1" y2="223.9"/>
	<line style="fill:none;stroke:#FFFFFF;stroke-miterlimit:10;" x1="220" y1="209.6" x2="220" y2="238.2"/>
	
		<rect x="183.5" y="207.3" transform="matrix(-1 -4.505519e-11 4.505519e-11 -1 392.9362 446.4415)" style="fill:#639127;" width="26" height="31.9"/>
	
		<rect x="184.5" y="209.6" transform="matrix(-1 -4.464885e-11 4.464885e-11 -1 392.8511 447.7283)" style="fill:#595E3E;" width="23.8" height="28.6"/>
	<line style="fill:none;stroke:#FFFFFF;stroke-miterlimit:10;" x1="208.3" y1="223.9" x2="184.5" y2="223.9"/>
	<line style="fill:none;stroke:#FFFFFF;stroke-miterlimit:10;" x1="196" y1="209.6" x2="196" y2="238.2"/>
	
		<rect x="65.3" y="175.2" transform="matrix(-1 -4.668766e-11 4.668766e-11 -1 133.5638 424.3138)" style="fill:#FFFFFF;" width="3" height="74"/>
	<polygon style="opacity:0.3;" points="244.3,218.2 148.3,212.3 148.3,207.2 244.3,207.2 	"/>
	
		<rect x="241.3" y="207.2" transform="matrix(-1 -4.668766e-11 4.668766e-11 -1 485.5638 456.3138)" style="fill:#FFFFFF;" width="3" height="42"/>
	
		<rect x="231.3" y="207.2" transform="matrix(-1 -4.668766e-11 4.668766e-11 -1 465.5638 456.3138)" style="fill:#FFFFFF;" width="3" height="42"/>
	
		<rect x="158.3" y="207.2" transform="matrix(-1 -4.365587e-11 4.365587e-11 -1 319.5638 456.3138)" style="fill:#FFFFFF;" width="3" height="42"/>
	
		<rect x="148.3" y="172.2" transform="matrix(-1 -4.304969e-11 4.304969e-11 -1 299.5638 421.3138)" style="fill:#FFFFFF;" width="3" height="77"/>
	
		<rect x="250.3" y="175.2" transform="matrix(-1 -4.304969e-11 4.304969e-11 -1 503.5638 424.3138)" style="fill:#FFFFFF;" width="3" height="74"/>
	
		<rect x="77.2" y="112.2" transform="matrix(-1 -4.490065e-11 4.490065e-11 -1 192.3511 278.3138)" style="fill:#B5ADA2;" width="38" height="54"/>
	
		<rect x="81.2" y="116.2" transform="matrix(-1 -4.492907e-11 4.492907e-11 -1 192.3511 282.3138)" style="fill:#595E3E;" width="30" height="50"/>
	<line style="fill:none;stroke:#FFFFFF;stroke-miterlimit:10;" x1="111.2" y1="141.2" x2="81.2" y2="141.2"/>
	<line style="fill:none;stroke:#FFFFFF;stroke-miterlimit:10;" x1="95.7" y1="116.2" x2="95.7" y2="166.2"/>
	
		<rect x="68.3" y="177.2" transform="matrix(-1 -4.490287e-11 4.490287e-11 -1 330.5638 368.3138)" style="opacity:0.8;fill:#FFFFFF;" width="194" height="14"/>
	<polygon style="fill:#85D474;" points="148.3,204.9 244.3,204.9 224.3,184.2 168.3,184.2 	"/>
	
		<rect x="148.3" y="204.9" transform="matrix(-1 -4.488733e-11 4.488733e-11 -1 392.5638 412.0138)" style="fill:#31631A;" width="96" height="2.3"/>
	
		<rect x="168.3" y="112.2" transform="matrix(-1 -4.490065e-11 4.490065e-11 -1 374.5638 278.3138)" style="fill:#B5ADA2;" width="38" height="54"/>
	
		<rect x="173" y="116" transform="matrix(-1 -4.492907e-11 4.492907e-11 -1 376 281.9308)" style="fill:#595E3E;" width="30" height="50"/>
	<line style="fill:none;stroke:#FFFFFF;stroke-miterlimit:10;" x1="202.3" y1="141.2" x2="172.3" y2="141.2"/>
	<line style="fill:none;stroke:#FFFFFF;stroke-miterlimit:10;" x1="186.8" y1="116.2" x2="186.8" y2="166.2"/>
	<polygon style="opacity:0.3;" points="265.3,122.2 65.3,109.9 65.3,99.2 265.3,99.2 	"/>
	
		<rect x="65.3" y="99.2" transform="matrix(-1 -4.490198e-11 4.490198e-11 -1 330.5638 204.3138)" style="fill:#FFFFFF;" width="200" height="6"/>
	
		<rect x="68.3" y="147.2" transform="matrix(-1 -4.490287e-11 4.490287e-11 -1 330.5638 313.3138)" style="opacity:0.5;fill:#FFFFFF;" width="194" height="19"/>
	
		<rect x="66.3" y="145.2" transform="matrix(-1 -4.489887e-11 4.489887e-11 -1 331.5638 292.3138)" style="fill:#FFFFFF;" width="199" height="2"/>
	
		<rect x="166.3" y="240.2" transform="matrix(-1 -4.483803e-11 4.483803e-11 -1 392.5638 481.3138)" style="fill:#639127;" width="60" height="1"/>
	<line style="fill:none;stroke:#639127;stroke-miterlimit:10;" x1="232.3" y1="205.2" x2="224.3" y2="184.2"/>
	<line style="fill:none;stroke:#639127;stroke-miterlimit:10;" x1="160.5" y1="204.8" x2="168.5" y2="183.8"/>
	<g>
		
			<rect x="262.3" y="99.2" transform="matrix(-1 -4.304969e-11 4.304969e-11 -1 527.5638 272.3138)" style="fill:#FFFFFF;" width="3" height="74"/>
		
			<rect x="262.3" y="175.2" transform="matrix(-1 -4.365587e-11 4.365587e-11 -1 527.5638 424.3138)" style="fill:#FFFFFF;" width="3" height="74"/>
	</g>
	
		<rect x="250.3" y="99.2" transform="matrix(-1 -4.304969e-11 4.304969e-11 -1 503.5638 272.3138)" style="fill:#FFFFFF;" width="3" height="74"/>
	
		<rect x="159.3" y="99.2" transform="matrix(-1 -4.668766e-11 4.668766e-11 -1 321.5638 272.3138)" style="fill:#FFFFFF;" width="3" height="74"/>
	
		<rect x="148.3" y="99.2" transform="matrix(-1 -4.304969e-11 4.304969e-11 -1 299.5638 272.3138)" style="fill:#FFFFFF;" width="3" height="74"/>
	
		<rect x="65.3" y="99.2" transform="matrix(-1 -4.668766e-11 4.668766e-11 -1 133.5638 272.3138)" style="fill:#FFFFFF;" width="3" height="74"/>
	
		<rect x="65.3" y="170.2" transform="matrix(-1 -4.490198e-11 4.490198e-11 -1 330.5638 347.3138)" style="fill:#FFFFFF;" width="200" height="7"/>
	
		<rect x="60.8" y="166.2" transform="matrix(-1 -4.488289e-11 4.488289e-11 -1 330.5638 336.3138)" style="fill:#85D474;" width="209" height="4"/>
	
		<rect x="60.8" y="170.2" transform="matrix(-1 -4.488289e-11 4.488289e-11 -1 330.5638 342.3138)" style="fill:#31631A;" width="209" height="2"/>
</g>
<g>
	<polygon style="fill:#916A7B;" points="1518.5,70.9 1444.5,70.9 1409.5,94.9 1553.5,94.9 	"/>
	<polygon style="fill:#916A7B;" points="1464.5,55.9 1429.5,55.9 1409.5,94.9 1484.5,94.9 	"/>
	<rect x="1409.5" y="98.9" style="fill:#EDE2D3;" width="150" height="147.1"/>
	<rect x="1433.5" y="120.9" style="opacity:0.5;fill:#FFFFFF;" width="27" height="54"/>
	<path style="opacity:0.5;fill:#FFFFFF;" d="M1464.5,116.4c-7-10.5-28-10.5-35,0v6.5h35V116.4z"/>
	<rect x="1409.5" y="173.9" style="opacity:0.5;fill:#FFFFFF;" width="150" height="72.1"/>
	<rect x="1404.5" y="173.9" style="fill:#FFFFFF;" width="160" height="8"/>
	<rect x="1409.5" y="181.9" style="opacity:0.8;fill:#FFFFFF;" width="150" height="10"/>
	<rect x="1421.5" y="198.9" style="fill:#35434A;" width="5" height="47.1"/>
	<polygon style="opacity:0.3;" points="1484.5,188.2 1409.5,185.4 1409.5,181.9 1484.5,181.9 	"/>
	<rect x="1404.5" y="94.9" style="fill:#FFFFFF;" width="160" height="4"/>
	<rect x="1429.5" y="115.9" style="fill:#FFFFFF;" width="35" height="7"/>
	<rect x="1436.5" y="128.9" style="fill:#35434A;" width="21" height="45"/>
	<rect x="1412.5" y="158.9" style="fill:#FFFFFF;" width="69" height="2"/>
	<polygon style="opacity:0.3;" points="1464.5,126.9 1429.5,125.1 1429.5,123 1464.5,123 	"/>
	<polygon style="opacity:0.3;" points="1457.5,136 1436.5,132.9 1436.5,128.9 1457.5,128.9 	"/>
	<rect x="1409.5" y="98.9" style="fill:#FFFFFF;" width="6" height="75"/>
	<rect x="1478.5" y="98.9" style="fill:#FFFFFF;" width="6" height="75"/>
	<rect x="1553.5" y="98.9" style="fill:#FFFFFF;" width="6" height="150"/>
	<polygon style="opacity:0.3;" points="1484.5,106.2 1409.5,103 1409.5,99.1 1484.5,99.1 	"/>
	<polygon style="opacity:0.3;" points="1559.5,106 1484.5,102.9 1484.5,98.9 1559.5,98.9 	"/>
	<polygon style="opacity:0.3;" points="1559.5,188.2 1484.5,185.4 1484.5,181.9 1559.5,181.9 	"/>
	<rect x="1484.5" y="98.9" style="opacity:0.3;" width="4" height="75"/>
	<rect x="1484.5" y="181.9" style="opacity:0.3;" width="4" height="64.1"/>
	<rect x="1466.5" y="198.9" style="fill:#35434A;" width="5" height="47.1"/>
	<rect x="1416.5" y="165.9" style="opacity:0.6;fill:#FFFFFF;" width="61" height="8"/>
	<rect x="1438.5" y="221.9" style="fill:#35434A;" width="17" height="24.1"/>
	<rect x="1438.5" y="198.9" style="fill:#C69C6D;" width="17" height="23"/>
	<polygon style="opacity:0.3;" points="1477.5,206.4 1416.5,200 1416.5,191.9 1477.5,191.9 	"/>
	<rect x="1412.5" y="158.9" style="fill:#FFFFFF;" width="7" height="90"/>
	<rect x="1429.5" y="158.9" style="fill:#FFFFFF;" width="7" height="90"/>
	<rect x="1457.5" y="158.9" style="fill:#FFFFFF;" width="7" height="90"/>
	<rect x="1474.5" y="158.9" style="fill:#FFFFFF;" width="7" height="90"/>
	<line style="fill:none;stroke:#FFFFFF;stroke-miterlimit:10;" x1="1436.5" y1="146.9" x2="1457.5" y2="146.9"/>
	<g>
		<rect x="1505.5" y="119.9" style="opacity:0.5;fill:#FFFFFF;" width="27" height="54"/>
		<rect x="1508.5" y="127.9" style="fill:#35434A;" width="21" height="46"/>
		<line style="fill:none;stroke:#FFFFFF;stroke-miterlimit:10;" x1="1508" y1="137.4" x2="1530" y2="137.4"/>
		<line style="fill:none;stroke:#FFFFFF;stroke-miterlimit:10;" x1="1519" y1="137.4" x2="1519" y2="174.4"/>
	</g>
	<g>
		<rect x="1505.4" y="194.7" style="opacity:0.5;fill:#FFFFFF;" width="27" height="50.9"/>
		<rect x="1508.4" y="202.2" style="fill:#35434A;" width="21" height="43.3"/>
		<line style="fill:none;stroke:#FFFFFF;stroke-miterlimit:10;" x1="1507.9" y1="211.1" x2="1529.9" y2="211.1"/>
		<line style="fill:none;stroke:#FFFFFF;stroke-miterlimit:10;" x1="1518.9" y1="211.1" x2="1518.9" y2="246"/>
	</g>
	<rect x="1505.5" y="181.9" style="fill:#FFFFFF;" width="3" height="10"/>
	<rect x="1529.5" y="181.9" style="fill:#FFFFFF;" width="3" height="10"/>
	<rect x="1409.5" y="85.9" style="fill:#E6E6E6;" width="150" height="9"/>
	<path style="fill:#FFFFFF;" d="M1455.5,69.9c-8-8-8-8-17,0v25h17V69.9z"/>
	<rect x="1409.5" y="78.9" style="fill:#FFFFFF;" width="6" height="16"/>
	<rect x="1478.5" y="78.9" style="fill:#FFFFFF;" width="6" height="16"/>
	<rect x="1553.5" y="78.9" style="fill:#FFFFFF;" width="6" height="16"/>
</g>
<g>
	<polygon style="fill:#61657A;" points="681.2,70.9 607.2,70.9 572.2,94.9 716.2,94.9 	"/>
	<polygon style="fill:#61657A;" points="627.2,55.9 592.2,55.9 572.2,94.9 647.2,94.9 	"/>
	<rect x="572.2" y="98.9" style="fill:#EDE2D3;" width="150" height="147.1"/>
	<rect x="596.2" y="120.9" style="opacity:0.5;fill:#FFFFFF;" width="27" height="54"/>
	<path style="opacity:0.5;fill:#FFFFFF;" d="M627.2,116.4c-7-10.5-28-10.5-35,0v6.5h35V116.4z"/>
	<rect x="572.2" y="173.9" style="opacity:0.5;fill:#FFFFFF;" width="150" height="72.1"/>
	<rect x="567.2" y="173.9" style="fill:#FFFFFF;" width="160" height="8"/>
	<rect x="572.2" y="181.9" style="opacity:0.8;fill:#FFFFFF;" width="150" height="10"/>
	<rect x="584.2" y="198.9" style="fill:#473F2B;" width="5" height="47.1"/>
	<polygon style="opacity:0.3;" points="647.2,188.2 572.2,185.4 572.2,181.9 647.2,181.9 	"/>
	<rect x="567.2" y="94.9" style="fill:#FFFFFF;" width="160" height="4"/>
	<rect x="592.2" y="115.9" style="fill:#FFFFFF;" width="35" height="7"/>
	<rect x="599.2" y="128.9" style="fill:#473F2B;" width="21" height="45"/>
	<rect x="575.2" y="158.9" style="fill:#FFFFFF;" width="69" height="2"/>
	<polygon style="opacity:0.3;" points="627.2,126.9 592.2,125.1 592.2,123 627.2,123 	"/>
	<polygon style="opacity:0.3;" points="620.2,136 599.2,132.9 599.2,128.9 620.2,128.9 	"/>
	<rect x="572.2" y="98.9" style="fill:#FFFFFF;" width="6" height="75"/>
	<rect x="641.2" y="98.9" style="fill:#FFFFFF;" width="6" height="75"/>
	<rect x="716.2" y="98.9" style="fill:#FFFFFF;" width="6" height="150"/>
	<polygon style="opacity:0.3;" points="647.2,106.2 572.2,103 572.2,99.1 647.2,99.1 	"/>
	<polygon style="opacity:0.3;" points="722.2,106 647.2,102.9 647.2,98.9 722.2,98.9 	"/>
	<polygon style="opacity:0.3;" points="722.2,188.2 647.2,185.4 647.2,181.9 722.2,181.9 	"/>
	<rect x="647.2" y="98.9" style="opacity:0.3;" width="4" height="75"/>
	<rect x="647.2" y="181.9" style="opacity:0.3;" width="4" height="64.1"/>
	<rect x="629.2" y="198.9" style="fill:#473F2B;" width="5" height="47.1"/>
	<rect x="579.2" y="165.9" style="opacity:0.6;fill:#FFFFFF;" width="61" height="8"/>
	<rect x="601.2" y="221.9" style="fill:#473F2B;" width="17" height="24.1"/>
	<rect x="601.2" y="198.9" style="fill:#C69C6D;" width="17" height="23"/>
	<polygon style="opacity:0.3;" points="640.2,206.4 579.2,200 579.2,191.9 640.2,191.9 	"/>
	<rect x="575.2" y="158.9" style="fill:#FFFFFF;" width="7" height="90"/>
	<rect x="592.2" y="158.9" style="fill:#FFFFFF;" width="7" height="90"/>
	<rect x="620.2" y="158.9" style="fill:#FFFFFF;" width="7" height="90"/>
	<rect x="637.2" y="158.9" style="fill:#FFFFFF;" width="7" height="90"/>
	<line style="fill:none;stroke:#FFFFFF;stroke-miterlimit:10;" x1="599.2" y1="146.9" x2="620.2" y2="146.9"/>
	<g>
		<rect x="668.2" y="119.9" style="opacity:0.5;fill:#FFFFFF;" width="27" height="54"/>
		<rect x="671.2" y="127.9" style="fill:#473F2B;" width="21" height="46"/>
		<line style="fill:none;stroke:#FFFFFF;stroke-miterlimit:10;" x1="670.7" y1="137.4" x2="692.7" y2="137.4"/>
		<line style="fill:none;stroke:#FFFFFF;stroke-miterlimit:10;" x1="681.7" y1="137.4" x2="681.7" y2="174.4"/>
	</g>
	<g>
		<rect x="668" y="194.7" style="opacity:0.5;fill:#FFFFFF;" width="27" height="50.9"/>
		<rect x="671" y="202.2" style="fill:#473F2B;" width="21" height="43.3"/>
		<line style="fill:none;stroke:#FFFFFF;stroke-miterlimit:10;" x1="670.5" y1="211.1" x2="692.5" y2="211.1"/>
		<line style="fill:none;stroke:#FFFFFF;stroke-miterlimit:10;" x1="681.5" y1="211.1" x2="681.5" y2="246"/>
	</g>
	<rect x="668.2" y="181.9" style="fill:#FFFFFF;" width="3" height="10"/>
	<rect x="692.2" y="181.9" style="fill:#FFFFFF;" width="3" height="10"/>
	<rect x="572.2" y="85.9" style="fill:#E6E6E6;" width="150" height="9"/>
	<path style="fill:#FFFFFF;" d="M618,70c-8-8-8-8-17,0v25h17V70z"/>
	<rect x="572.2" y="78.9" style="fill:#FFFFFF;" width="6" height="16"/>
	<rect x="641" y="79" style="fill:#FFFFFF;" width="6" height="16"/>
	<rect x="716.2" y="78.9" style="fill:#FFFFFF;" width="6" height="16"/>
</g>
</svg>
