<?xml version="1.0" encoding="utf-8"?>
<!-- Generator: Adobe Illustrator 23.1.0, SVG Export Plug-In . SVG Version: 6.00 Build 0) -->
<svg version="1.1" id="svg2" svg="http://www.w3.org/2000/svg" x="0px" y="0px" viewBox="0 0 171.1 173.5" style="enable-background:new 0 0 171.1 173.5;" xml:space="preserve">
	<style type="text/css">
		.st0{fill:#D7058D;}
		.st1{fill:#E60A61;}
		.st2{fill:#97C7ED;}
		.st3{fill:#ADDE76;}
		.st4{fill:#FDDD57;}
		.st5{fill:#7559B2;}
	</style>
	<path id="path14" class="st0" d="M50.2,48.3L50.2,48.3c-1.3-1.4-3.7-2.9-3.8-3l-2.6-1.5c-14-8-32-3.2-40,10.9s-3.2,32,10.9,40
	c14,8,32,3.2,40-10.9l14.6-25.4C61.7,57.6,54.9,53.8,50.2,48.3" />
	<path id="path16" class="st1" d="M101.1,36.9L101.1,36.9c0.6-1.8,0.7-4.7,0.7-4.8v-2.9C101.7,13,88.5-0.1,72.4,0
	C56.2,0.1,43.1,13.2,43.2,29.4c0.1,16.2,13.2,29.3,29.4,29.2l29.3-0.1C98.8,51.5,98.7,43.8,101.1,36.9" />
	<path id="path18" class="st2" d="M69.9,136.6L69.9,136.6c-0.6,1.8-0.7,4.7-0.7,4.8v2.9c0.1,16.2,13.2,29.3,29.4,29.2
	s29.3-13.2,29.2-29.4c-0.1-16.2-13.2-29.3-29.4-29.2L69.1,115C72.2,122,72.3,129.7,69.9,136.6" />
	<path id="path20" class="st3" d="M34.6,98.2C34.5,98.2,34.5,98.2,34.6,98.2c-1.9,0.4-4.4,1.8-4.5,1.8l-2.5,1.5
	c-14,8.1-18.7,26.1-10.6,40.1c8.2,14,26.1,18.7,40.1,10.6C71,144,75.8,126,67.6,112L52.9,86.7C48.3,92.9,41.7,96.9,34.6,98.2" />
	<path id="path22" class="st4" d="M136.5,75.5L136.5,75.5c1.9-0.4,4.4-1.8,4.5-1.8l2.5-1.5c14-8.1,18.7-26.1,10.6-40.1
	C146,18.1,128,13.4,114,21.5s-18.7,26.1-10.6,40.1l14.8,25.3C122.7,80.8,129.3,76.8,136.5,75.5" />
	<path id="path24" class="st5" d="M120.9,125.3L120.9,125.3c1.3,1.4,3.7,2.9,3.8,3l2.6,1.5c14,8,32,3.2,40-10.9s3.2-32-10.9-40
	c-14-8-32-3.2-40,10.9L101.9,115C109.5,115.9,116.2,119.7,120.9,125.3" />
</svg>
