<?xml version="1.0" encoding="utf-8"?>
<!-- Generator: Adobe Illustrator 23.1.0, SVG Export Plug-In . SVG Version: 6.00 Build 0)  -->
<svg version="1.1" id="Layer_1" xmlns="http://www.w3.org/2000/svg" xmlns:xlink="http://www.w3.org/1999/xlink" x="0px" y="0px"
	 viewBox="0 0 1920 756" style="enable-background:new 0 0 1920 756;" xml:space="preserve">
<g>
	<defs>
		<rect id="SVGID_1_" y="-324" width="1920" height="1080"/>
	</defs>
	<clipPath id="SVGID_2_">
		<use xlink:href="#SVGID_1_"  style="overflow:visible;"/>
	</clipPath>
	<path style="clip-path:url(#SVGID_2_);fill:#FFFFFF;stroke:#000000;stroke-miterlimit:10;" d="M130.5,639.5"/>
	<linearGradient id="SVGID_3_" gradientUnits="userSpaceOnUse" x1="960" y1="756.5" x2="960" y2="276.7989">
		<stop  offset="0" style="stop-color:#EDE393"/>
		<stop  offset="0.1461" style="stop-color:#E8E092"/>
		<stop  offset="0.3079" style="stop-color:#DBD88F"/>
		<stop  offset="0.4772" style="stop-color:#C5CB8A"/>
		<stop  offset="0.6516" style="stop-color:#A6B882"/>
		<stop  offset="0.8284" style="stop-color:#7FA079"/>
		<stop  offset="0.8938" style="stop-color:#6E9675"/>
	</linearGradient>
	<path style="clip-path:url(#SVGID_2_);fill:url(#SVGID_3_);" d="M0.5,333.5l101.8-24.3c32.3-7.7,66-7.2,98.1,1.3l80.8,21.6
		c37.5,10,77,10,114.5,0l74.2-19.8c63.6-17,130.2-20.1,195.1-9.1l158,26.9c43.9,7.5,88.9,6.7,132.5-2.2l138.6-28.5
		c93.2-19.1,189.3-18.7,282.3,1.3l168.8,36.3c43.7,9.4,89.3,5.1,130.5-12.2l72.8-30.7c51.4-21.6,109-23.1,161.4-4.1l9.5,3.4v463H0.5
		V333.5z"/>
	<linearGradient id="SVGID_4_" gradientUnits="userSpaceOnUse" x1="59.5" y1="697.5" x2="59.5" y2="697.5">
		<stop  offset="0" style="stop-color:#C7B214"/>
		<stop  offset="0.1401" style="stop-color:#B7AB2B"/>
		<stop  offset="0.3723" style="stop-color:#A0A24B"/>
		<stop  offset="0.5969" style="stop-color:#909B62"/>
		<stop  offset="0.8087" style="stop-color:#86976F"/>
		<stop  offset="0.9944" style="stop-color:#839674"/>
	</linearGradient>
	<path style="clip-path:url(#SVGID_2_);fill:url(#SVGID_4_);stroke:#000000;stroke-miterlimit:10;" d="M59.5,697.5"/>
	<linearGradient id="SVGID_5_" gradientUnits="userSpaceOnUse" x1="581.25" y1="646" x2="581.25" y2="354.3331">
		<stop  offset="0" style="stop-color:#CEDE8E"/>
		<stop  offset="0.9888" style="stop-color:#54876A"/>
	</linearGradient>
	<path style="clip-path:url(#SVGID_2_);fill:url(#SVGID_5_);" d="M26.5,646l315.2-224.3c116-82.5,256.2-89.7,377-19.2L1136,646H26.5
		z"/>
	<linearGradient id="SVGID_6_" gradientUnits="userSpaceOnUse" x1="1751.4302" y1="1011.0397" x2="2146.3835" y2="326.9603">
		<stop  offset="0.3687" style="stop-color:#7EC7CC"/>
		<stop  offset="0.3824" style="stop-color:#7AC1C5"/>
		<stop  offset="0.4514" style="stop-color:#68A9A5"/>
		<stop  offset="0.5264" style="stop-color:#59958B"/>
		<stop  offset="0.6085" style="stop-color:#4E8676"/>
		<stop  offset="0.7013" style="stop-color:#467B68"/>
		<stop  offset="0.8137" style="stop-color:#417560"/>
		<stop  offset="1" style="stop-color:#40735D"/>
	</linearGradient>
	<path style="clip-path:url(#SVGID_2_);fill:url(#SVGID_6_);" d="M1159,669l448.8-253.5c165.1-93.3,364.8-101.3,536.9-21.7
		L2738.8,669H1159z"/>
	<linearGradient id="SVGID_7_" gradientUnits="userSpaceOnUse" x1="1470.4854" y1="712" x2="1470.4854" y2="373.3331">
		<stop  offset="0" style="stop-color:#A5BFA3"/>
		<stop  offset="0.2115" style="stop-color:#9CB99E"/>
		<stop  offset="0.5527" style="stop-color:#85A990"/>
		<stop  offset="0.9789" style="stop-color:#5E907A"/>
		<stop  offset="0.9888" style="stop-color:#5D8F79"/>
	</linearGradient>
	<path style="clip-path:url(#SVGID_2_);fill:url(#SVGID_7_);" d="M897,712l325.8-260.4c119.9-95.8,264.9-104.1,389.8-22.3L2044,712
		H897z"/>
	<linearGradient id="SVGID_8_" gradientUnits="userSpaceOnUse" x1="2014.1852" y1="1146.6729" x2="1591.9425" y2="415.3271">
		<stop  offset="0" style="stop-color:#6BB091"/>
		<stop  offset="0.5228" style="stop-color:#6DB08F"/>
		<stop  offset="0.711" style="stop-color:#74B189"/>
		<stop  offset="0.8448" style="stop-color:#7FB27E"/>
		<stop  offset="0.9413" style="stop-color:#8EB471"/>
		<stop  offset="0.9939" style="stop-color:#C1C745"/>
		<stop  offset="1" style="stop-color:#C7C940"/>
	</linearGradient>
	<path style="clip-path:url(#SVGID_2_);fill:url(#SVGID_8_);" d="M958.6,781l479.8-260.4c176.5-95.8,390-104.1,573.9-22.3
		L2647.5,781H958.6z"/>
	<linearGradient id="SVGID_9_" gradientUnits="userSpaceOnUse" x1="2021.6465" y1="977.1921" x2="1933.0052" y2="474.4827">
		<stop  offset="0" style="stop-color:#3F5C10"/>
		<stop  offset="2.701274e-02" style="stop-color:#405E14"/>
		<stop  offset="0.3293" style="stop-color:#4D7340"/>
		<stop  offset="0.6011" style="stop-color:#56825F"/>
		<stop  offset="0.8301" style="stop-color:#5B8C72"/>
		<stop  offset="0.9888" style="stop-color:#5D8F79"/>
	</linearGradient>
	<path style="clip-path:url(#SVGID_2_);fill:url(#SVGID_9_);" d="M1394,873l346.1-367.6c127.4-135.2,281.4-146.9,414.1-31.4
		l458.3,399H1394z"/>
	<linearGradient id="SVGID_10_" gradientUnits="userSpaceOnUse" x1="-335.4687" y1="1475.8229" x2="710.1771" y2="430.1771">
		<stop  offset="0" style="stop-color:#2C664D"/>
		<stop  offset="0.3734" style="stop-color:#2E674D"/>
		<stop  offset="0.5079" style="stop-color:#356C4D"/>
		<stop  offset="0.6037" style="stop-color:#40754D"/>
		<stop  offset="0.6813" style="stop-color:#51814D"/>
		<stop  offset="0.7468" style="stop-color:#67904D"/>
		<stop  offset="0.7877" style="stop-color:#799D4D"/>
		<stop  offset="0.7993" style="stop-color:#7D9F4C"/>
		<stop  offset="0.8681" style="stop-color:#92A945"/>
		<stop  offset="0.9356" style="stop-color:#9FAF40"/>
		<stop  offset="1" style="stop-color:#A3B13F"/>
	</linearGradient>
	<path style="clip-path:url(#SVGID_2_);fill:url(#SVGID_10_);" d="M-858.3,953l594-403.7c218.6-148.5,482.9-161.4,710.7-34.5
		L1233,953H-858.3z"/>
	<linearGradient id="SVGID_11_" gradientUnits="userSpaceOnUse" x1="655.3812" y1="1352.4583" x2="957.1252" y2="523.4235">
		<stop  offset="0.3877" style="stop-color:#588666"/>
		<stop  offset="0.5987" style="stop-color:#5A8864"/>
		<stop  offset="0.7055" style="stop-color:#628D5F"/>
		<stop  offset="0.7887" style="stop-color:#6F9655"/>
		<stop  offset="0.8539" style="stop-color:#80A248"/>
		<stop  offset="0.9028" style="stop-color:#83A348"/>
		<stop  offset="0.9324" style="stop-color:#8BA648"/>
		<stop  offset="0.9569" style="stop-color:#99AC49"/>
		<stop  offset="0.9784" style="stop-color:#ADB549"/>
		<stop  offset="0.9944" style="stop-color:#C2BD4A"/>
	</linearGradient>
	<path style="clip-path:url(#SVGID_2_);fill:url(#SVGID_11_);" d="M-302,1004l616-403.7c226.6-148.5,500.7-161.4,736.9-34.5
		l815.6,438.2H-302z"/>
	<linearGradient id="SVGID_12_" gradientUnits="userSpaceOnUse" x1="1066.559" y1="1030.1896" x2="1016.8168" y2="461.6346">
		<stop  offset="0.4204" style="stop-color:#7D9E8A"/>
		<stop  offset="0.4802" style="stop-color:#7D9E85"/>
		<stop  offset="0.5462" style="stop-color:#7E9F78"/>
		<stop  offset="0.6153" style="stop-color:#7FA062"/>
		<stop  offset="0.686" style="stop-color:#80A243"/>
		<stop  offset="0.7179" style="stop-color:#81A333"/>
		<stop  offset="0.775" style="stop-color:#88A636"/>
		<stop  offset="0.8586" style="stop-color:#9CAE3D"/>
		<stop  offset="0.958" style="stop-color:#BCBA48"/>
		<stop  offset="0.9888" style="stop-color:#C7BF4C"/>
	</linearGradient>
	<path style="clip-path:url(#SVGID_2_);fill:url(#SVGID_12_);" d="M26,878c0,0,512-183,798-320c207-130,358.1-143.6,550-6.9
		L2086,941L26,878z"/>
</g>
</svg>
