<?xml version="1.0" encoding="utf-8"?>
<!-- Generator: Adobe Illustrator 23.1.0, SVG Export Plug-In . SVG Version: 6.00 Build 0)  -->
<svg version="1.1" id="Layer_1" xmlns="http://www.w3.org/2000/svg" xmlns:xlink="http://www.w3.org/1999/xlink" x="0px" y="0px"
	 viewBox="0 0 1920 500" enable-background="new 0 0 1920 500" xml:space="preserve">
<g>
	<g>
		<defs>
			<rect id="SVGID_1_" y="-580" width="1920" height="1080"/>
		</defs>
		<clipPath id="SVGID_2_">
			<use xlink:href="#SVGID_1_"  overflow="visible"/>
		</clipPath>
		<path clip-path="url(#SVGID_2_)" fill="#FFFFFF" stroke="#000000" stroke-miterlimit="10" d="M130.5,383.5"/>
	</g>
	<g>
		<defs>
			<rect id="SVGID_3_" y="-580" width="1920" height="1080"/>
		</defs>
		<clipPath id="SVGID_4_">
			<use xlink:href="#SVGID_3_"  overflow="visible"/>
		</clipPath>
		
			<linearGradient id="SVGID_5_" gradientUnits="userSpaceOnUse" x1="959.95" y1="-254.3999" x2="959.95" y2="225.2475" gradientTransform="matrix(1 0 0 -1 0 246)">
			<stop  offset="0" style="stop-color:#EDE393"/>
			<stop  offset="0.1461" style="stop-color:#E8E092"/>
			<stop  offset="0.3079" style="stop-color:#DBD88F"/>
			<stop  offset="0.4772" style="stop-color:#C5CB8A"/>
			<stop  offset="0.6516" style="stop-color:#A6B882"/>
			<stop  offset="0.8284" style="stop-color:#7FA079"/>
			<stop  offset="0.8938" style="stop-color:#6E9675"/>
		</linearGradient>
		<path clip-path="url(#SVGID_4_)" fill="url(#SVGID_5_)" d="M0.5,77.5l101.8-24.3c32.3-7.7,66-7.2,98.1,1.3l80.8,21.6
			c37.5,10,77,10,114.5,0l74.2-19.8c63.6-17,130.2-20.1,195.1-9.1l158,26.9c43.9,7.5,88.9,6.7,132.5-2.2l138.6-28.5
			c93.2-19.1,189.3-18.7,282.3,1.3L1545.2,81c43.7,9.4,89.3,5.1,130.5-12.2l72.8-30.7c51.4-21.6,109-23.1,161.4-4.1l9.5,3.4v463H0.5
			V77.5z"/>
	</g>
	<g>
		<defs>
			<rect id="SVGID_6_" y="-580" width="1920" height="1080"/>
		</defs>
		<clipPath id="SVGID_7_">
			<use xlink:href="#SVGID_6_"  overflow="visible"/>
		</clipPath>
		
			<linearGradient id="SVGID_8_" gradientUnits="userSpaceOnUse" x1="59.5" y1="-195.5" x2="59.5" y2="-195.5" gradientTransform="matrix(1 0 0 -1 0 246)">
			<stop  offset="0" style="stop-color:#C7B214"/>
			<stop  offset="0.1401" style="stop-color:#B7AB2B"/>
			<stop  offset="0.3723" style="stop-color:#A0A24B"/>
			<stop  offset="0.5969" style="stop-color:#909B62"/>
			<stop  offset="0.8087" style="stop-color:#86976F"/>
			<stop  offset="0.9944" style="stop-color:#839674"/>
		</linearGradient>
		<path clip-path="url(#SVGID_7_)" fill="url(#SVGID_8_)" stroke="#000000" stroke-miterlimit="10" d="M59.5,441.5"/>
	</g>
	<g>
		<defs>
			<rect id="SVGID_9_" y="-580" width="1920" height="1080"/>
		</defs>
		<clipPath id="SVGID_10_">
			<use xlink:href="#SVGID_9_"  overflow="visible"/>
		</clipPath>
		
			<linearGradient id="SVGID_11_" gradientUnits="userSpaceOnUse" x1="581.25" y1="-144" x2="581.25" y2="147.7019" gradientTransform="matrix(1 0 0 -1 0 246)">
			<stop  offset="0" style="stop-color:#CEDE8E"/>
			<stop  offset="0.9888" style="stop-color:#54876A"/>
		</linearGradient>
		<path clip-path="url(#SVGID_10_)" fill="url(#SVGID_11_)" d="M26.5,390l315.2-224.3c116-82.5,256.2-89.7,377-19.2L1136,390H26.5z"
			/>
	</g>
	<g>
		<defs>
			<rect id="SVGID_12_" y="-580" width="1920" height="1080"/>
		</defs>
		<clipPath id="SVGID_13_">
			<use xlink:href="#SVGID_12_"  overflow="visible"/>
		</clipPath>
		
			<linearGradient id="SVGID_14_" gradientUnits="userSpaceOnUse" x1="1751.425" y1="-509.0367" x2="2146.375" y2="175.0367" gradientTransform="matrix(1 0 0 -1 0 246)">
			<stop  offset="0.3687" style="stop-color:#7EC7CC"/>
			<stop  offset="0.3824" style="stop-color:#7AC1C5"/>
			<stop  offset="0.4514" style="stop-color:#68A9A5"/>
			<stop  offset="0.5264" style="stop-color:#59958B"/>
			<stop  offset="0.6085" style="stop-color:#4E8676"/>
			<stop  offset="0.7013" style="stop-color:#467B68"/>
			<stop  offset="0.8137" style="stop-color:#417560"/>
			<stop  offset="1" style="stop-color:#40735D"/>
		</linearGradient>
		<path clip-path="url(#SVGID_13_)" fill="url(#SVGID_14_)" d="M1159,413l448.8-253.5c165.1-93.3,364.8-101.3,536.9-21.7L2738.8,413
			H1159z"/>
	</g>
	<g>
		<defs>
			<rect id="SVGID_15_" y="-580" width="1920" height="1080"/>
		</defs>
		<clipPath id="SVGID_16_">
			<use xlink:href="#SVGID_15_"  overflow="visible"/>
		</clipPath>
		
			<linearGradient id="SVGID_17_" gradientUnits="userSpaceOnUse" x1="1470.5" y1="-210" x2="1470.5" y2="128.6441" gradientTransform="matrix(1 0 0 -1 0 246)">
			<stop  offset="0" style="stop-color:#A5BFA3"/>
			<stop  offset="0.2115" style="stop-color:#9CB99E"/>
			<stop  offset="0.5527" style="stop-color:#85A990"/>
			<stop  offset="0.9789" style="stop-color:#5E907A"/>
			<stop  offset="0.9888" style="stop-color:#5D8F79"/>
		</linearGradient>
		<path clip-path="url(#SVGID_16_)" fill="url(#SVGID_17_)" d="M897,456l325.8-260.4c119.9-95.8,264.9-104.1,389.8-22.3L2044,456
			H897z"/>
	</g>
	<g>
		<defs>
			<rect id="SVGID_18_" y="-580" width="1920" height="1080"/>
		</defs>
		<clipPath id="SVGID_19_">
			<use xlink:href="#SVGID_18_"  overflow="visible"/>
		</clipPath>
		
			<linearGradient id="SVGID_20_" gradientUnits="userSpaceOnUse" x1="2014.1625" y1="-644.6576" x2="1591.9375" y2="86.6576" gradientTransform="matrix(1 0 0 -1 0 246)">
			<stop  offset="0" style="stop-color:#6BB091"/>
			<stop  offset="0.5228" style="stop-color:#6DB08F"/>
			<stop  offset="0.711" style="stop-color:#74B189"/>
			<stop  offset="0.8448" style="stop-color:#7FB27E"/>
			<stop  offset="0.9413" style="stop-color:#8EB471"/>
			<stop  offset="0.9939" style="stop-color:#C1C745"/>
			<stop  offset="1" style="stop-color:#C7C940"/>
		</linearGradient>
		<path clip-path="url(#SVGID_19_)" fill="url(#SVGID_20_)" d="M958.6,525l479.8-260.4c176.5-95.8,390-104.1,573.9-22.3L2647.5,525
			H958.6z"/>
	</g>
	<g>
		<defs>
			<rect id="SVGID_21_" y="-580" width="1920" height="1080"/>
		</defs>
		<clipPath id="SVGID_22_">
			<use xlink:href="#SVGID_21_"  overflow="visible"/>
		</clipPath>
		
			<linearGradient id="SVGID_23_" gradientUnits="userSpaceOnUse" x1="2021.6211" y1="-475.1879" x2="1932.9799" y2="27.5215" gradientTransform="matrix(1 0 0 -1 0 246)">
			<stop  offset="0" style="stop-color:#3F5C10"/>
			<stop  offset="2.701274e-02" style="stop-color:#405E14"/>
			<stop  offset="0.3293" style="stop-color:#4D7340"/>
			<stop  offset="0.6011" style="stop-color:#56825F"/>
			<stop  offset="0.8301" style="stop-color:#5B8C72"/>
			<stop  offset="0.9888" style="stop-color:#5D8F79"/>
		</linearGradient>
		<path clip-path="url(#SVGID_22_)" fill="url(#SVGID_23_)" d="M1394,617l346.1-367.6c127.4-135.2,281.4-146.9,414.1-31.4l458.3,399
			H1394z"/>
	</g>
	<g>
		<defs>
			<rect id="SVGID_24_" y="-580" width="1920" height="1080"/>
		</defs>
		<clipPath id="SVGID_25_">
			<use xlink:href="#SVGID_24_"  overflow="visible"/>
		</clipPath>
		
			<linearGradient id="SVGID_26_" gradientUnits="userSpaceOnUse" x1="-335.475" y1="-973.825" x2="710.175" y2="71.825" gradientTransform="matrix(1 0 0 -1 0 246)">
			<stop  offset="0" style="stop-color:#2C664D"/>
			<stop  offset="0.3734" style="stop-color:#2E674D"/>
			<stop  offset="0.5079" style="stop-color:#356C4D"/>
			<stop  offset="0.6037" style="stop-color:#40754D"/>
			<stop  offset="0.6813" style="stop-color:#51814D"/>
			<stop  offset="0.7468" style="stop-color:#67904D"/>
			<stop  offset="0.7877" style="stop-color:#799D4D"/>
			<stop  offset="0.7993" style="stop-color:#7D9F4C"/>
			<stop  offset="0.8681" style="stop-color:#92A945"/>
			<stop  offset="0.9356" style="stop-color:#9FAF40"/>
			<stop  offset="1" style="stop-color:#A3B13F"/>
		</linearGradient>
		<path clip-path="url(#SVGID_25_)" fill="url(#SVGID_26_)" d="M-858.3,697l594-403.7c218.6-148.5,482.9-161.4,710.7-34.5L1233,697
			H-858.3z"/>
	</g>
	<g>
		<defs>
			<rect id="SVGID_27_" y="-580" width="1920" height="1080"/>
		</defs>
		<clipPath id="SVGID_28_">
			<use xlink:href="#SVGID_27_"  overflow="visible"/>
		</clipPath>
		
			<linearGradient id="SVGID_29_" gradientUnits="userSpaceOnUse" x1="655.4169" y1="-850.4713" x2="957.1674" y2="-21.4183" gradientTransform="matrix(1 0 0 -1 0 246)">
			<stop  offset="0.3877" style="stop-color:#588666"/>
			<stop  offset="0.5987" style="stop-color:#5A8864"/>
			<stop  offset="0.7055" style="stop-color:#628D5F"/>
			<stop  offset="0.7887" style="stop-color:#6F9655"/>
			<stop  offset="0.8539" style="stop-color:#80A248"/>
			<stop  offset="0.9028" style="stop-color:#83A348"/>
			<stop  offset="0.9324" style="stop-color:#8BA648"/>
			<stop  offset="0.9569" style="stop-color:#99AC49"/>
			<stop  offset="0.9784" style="stop-color:#ADB549"/>
			<stop  offset="0.9944" style="stop-color:#C2BD4A"/>
		</linearGradient>
		<path clip-path="url(#SVGID_28_)" fill="url(#SVGID_29_)" d="M-302,748l616-403.7c226.6-148.5,500.7-161.4,736.9-34.5L1866.5,748
			H-302z"/>
	</g>
	<g>
		<defs>
			<rect id="SVGID_30_" y="-580" width="1920" height="1080"/>
		</defs>
		<clipPath id="SVGID_31_">
			<use xlink:href="#SVGID_30_"  overflow="visible"/>
		</clipPath>
		
			<linearGradient id="SVGID_32_" gradientUnits="userSpaceOnUse" x1="1066.559" y1="-528.1897" x2="1016.8165" y2="40.3686" gradientTransform="matrix(1 0 0 -1 0 246)">
			<stop  offset="0.4204" style="stop-color:#7D9E8A"/>
			<stop  offset="0.4802" style="stop-color:#7D9E85"/>
			<stop  offset="0.5462" style="stop-color:#7E9F78"/>
			<stop  offset="0.6153" style="stop-color:#7FA062"/>
			<stop  offset="0.686" style="stop-color:#80A243"/>
			<stop  offset="0.7179" style="stop-color:#81A333"/>
			<stop  offset="0.775" style="stop-color:#88A636"/>
			<stop  offset="0.8586" style="stop-color:#9CAE3D"/>
			<stop  offset="0.958" style="stop-color:#BCBA48"/>
			<stop  offset="0.9888" style="stop-color:#C7BF4C"/>
		</linearGradient>
		<path clip-path="url(#SVGID_31_)" fill="url(#SVGID_32_)" d="M26,622c0,0,512-183,798-320c207-130,358.1-143.6,550-6.9L2086,685
			L26,622z"/>
	</g>
</g>
</svg>
